<?xml version="1.0" encoding="utf-8"?>
<svg version="1.1" xmlns:xlink="http://www.w3.org/1999/xlink" width="12px" height="12px" viewBox="755 507.5  12 12" xmlns="http://www.w3.org/2000/svg">
  <path d="M 761 507.5  C 764.36 507.5  767 510.14  767 513.5  C 767 516.86  764.36 519.5  761 519.5  C 757.64 519.5  755 516.86  755 513.5  C 755 510.14  757.64 507.5  761 507.5  Z " fill-rule="nonzero" fill="#ffffff" stroke="none" />
  <path d="M 761 508  C 764.08 508  766.5 510.42  766.5 513.5  C 766.5 516.58  764.08 519  761 519  C 757.92 519  755.5 516.58  755.5 513.5  C 755.5 510.42  757.92 508  761 508  Z " stroke-width="1" stroke="#797979" fill="none" />
  <path d="M 761 516.5  C 759.32 516.5  758 515.18  758 513.5  C 758 511.82  759.32 510.5  761 510.5  C 762.68 510.5  764 511.82  764 513.5  C 764 515.18  762.68 516.5  761 516.5  " fill-rule="nonzero" fill="#797979" stroke="none" />
</svg>