<?xml version="1.0" encoding="utf-8"?>
<svg version="1.1" xmlns:xlink="http://www.w3.org/1999/xlink" width="12px" height="12px" viewBox="932 507.5  12 12" xmlns="http://www.w3.org/2000/svg">
  <path d="M 938 507.5  C 941.36 507.5  944 510.14  944 513.5  C 944 516.86  941.36 519.5  938 519.5  C 934.64 519.5  932 516.86  932 513.5  C 932 510.14  934.64 507.5  938 507.5  Z " fill-rule="nonzero" fill="#f0f0f0" stroke="none" />
  <path d="M 938 508  C 941.08 508  943.5 510.42  943.5 513.5  C 943.5 516.58  941.08 519  938 519  C 934.92 519  932.5 516.58  932.5 513.5  C 932.5 510.42  934.92 508  938 508  Z " stroke-width="1" stroke="#797979" fill="none" />
  <path d="M 938 516.5  C 936.32 516.5  935 515.18  935 513.5  C 935 511.82  936.32 510.5  938 510.5  C 939.68 510.5  941 511.82  941 513.5  C 941 515.18  939.68 516.5  938 516.5  " fill-rule="nonzero" fill="#797979" stroke="none" />
</svg>