<?xml version="1.0" encoding="utf-8"?>
<svg version="1.1" xmlns:xlink="http://www.w3.org/1999/xlink" width="15px" height="15px" xmlns="http://www.w3.org/2000/svg">
  <g transform="matrix(1 0 0 1 -947 -11 )">
    <path d="M 14.919375 1.96375  C 14.86625 1.9475  14.8 1.93875  14.720625 1.93875  L 9.695625 1.93875  L 9.695625 2.86875  L 11.176875 2.86875  L 11.176875 4.34  L 9.695625 4.34  L 9.695625 4.80875  L 11.176875 4.80875  L 11.176875 6.281875  L 9.695625 6.281875  L 9.695625 6.76375  L 11.176875 6.76375  L 11.176875 8.156875  L 9.695625 8.156875  L 9.695625 8.715  L 11.176875 8.715  L 11.176875 10.11125  L 9.695625 10.11125  L 9.695625 10.669375  L 11.176875 10.669375  L 11.176875 12.07375  L 9.695625 12.07375  L 9.695625 13.098125  L 14.720625 13.098125  C 14.8 13.074375  14.86625 12.980625  14.919375 12.818125  C 14.9725 12.654375  15 12.52125  15 12.420625  L 15 2.10875  C 15 2.02875  14.9725 1.980625  14.919375 1.96375  Z M 14.06875 12.07375  L 14.06875 12.0725  L 11.658125 12.0725  L 11.658125 10.669375  L 14.06875 10.669375  L 14.06875 12.07375  Z M 14.06875 8.714375  L 14.06875 10.11125  L 11.658125 10.11125  L 11.658125 8.714375  L 14.06875 8.714375  Z M 14.06875 8.1575  L 14.06875 8.15625  L 11.658125 8.15625  L 11.658125 6.769375  L 14.06875 6.769375  L 14.06875 8.1575  Z M 14.06875 6.28125  L 11.658125 6.28125  L 11.658125 4.81  L 14.06875 4.81  L 14.06875 6.281875  Z M 14.06875 4.34125  L 14.06875 4.331875  L 11.658125 4.331875  L 11.658125 2.869375  L 14.06875 2.869375  L 14.06875 4.34125  Z M 0 1.711875  L 0 1.706875  L 0 13.3325  L 8.85 14.863125  L 8.85 0.136875  L 0 1.711875  Z M 5.245625 10.5  L 5.245625 10.50125  C 5.211875 10.41  5.053125 10.0225  4.771875 9.336875  C 4.49125 8.651875  4.321875 8.253125  4.2725 8.139375  L 4.256875 8.139375  L 3.3075 10.39875  L 2.03875 10.313125  L 3.54375 7.500625  L 2.165625 4.688125  L 3.459375 4.62  L 4.314375 6.820625  L 4.33125 6.820625  L 5.296875 4.52  L 6.63375 4.435625  L 5.041875 7.479375  L 6.6825 10.584375  L 5.245625 10.5  Z " fill-rule="nonzero" fill="#217346" stroke="none" transform="matrix(1 0 0 1 947 11 )" />
  </g>
</svg>