<?xml version="1.0" encoding="utf-8"?>
<svg version="1.1" xmlns:xlink="http://www.w3.org/1999/xlink" width="13px" height="13px" viewBox="28 64  13 13" xmlns="http://www.w3.org/2000/svg">
  <path d="M 28.5 66  A 1.5 1.5 0 0 1 30 64.5 L 39 64.5  A 1.5 1.5 0 0 1 40.5 66 L 40.5 75  A 1.5 1.5 0 0 1 39 76.5 L 30 76.5  A 1.5 1.5 0 0 1 28.5 75 L 28.5 66  Z " fill-rule="nonzero" fill="#f0f0f0" stroke="none" />
  <path d="M 28.5 66  A 1.5 1.5 0 0 1 30 64.5 L 39 64.5  A 1.5 1.5 0 0 1 40.5 66 L 40.5 75  A 1.5 1.5 0 0 1 39 76.5 L 30 76.5  A 1.5 1.5 0 0 1 28.5 75 L 28.5 66  Z " stroke-width="1" stroke="#797979" fill="none" />
</svg>