<?xml version="1.0" encoding="utf-8"?>
<svg version="1.1" xmlns:xlink="http://www.w3.org/1999/xlink" width="13px" height="13px" viewBox="28 104  13 13" xmlns="http://www.w3.org/2000/svg">
  <path d="M 28.5 106  A 1.5 1.5 0 0 1 30 104.5 L 39 104.5  A 1.5 1.5 0 0 1 40.5 106 L 40.5 115  A 1.5 1.5 0 0 1 39 116.5 L 30 116.5  A 1.5 1.5 0 0 1 28.5 115 L 28.5 106  Z " fill-rule="nonzero" fill="#f0f0f0" stroke="none" />
  <path d="M 28.5 106  A 1.5 1.5 0 0 1 30 104.5 L 39 104.5  A 1.5 1.5 0 0 1 40.5 106 L 40.5 115  A 1.5 1.5 0 0 1 39 116.5 L 30 116.5  A 1.5 1.5 0 0 1 28.5 115 L 28.5 106  Z " stroke-width="1" stroke="#797979" fill="none" />
  <path d="M 30.7857142857143 110.5  L 33.5714285714286 113.285714285714  L 38.2142857142857 106.785714285714  " stroke-width="2.78571428571429" stroke="#797979" fill="none" />
</svg>