<?xml version="1.0" encoding="utf-8"?>
<svg version="1.1" xmlns:xlink="http://www.w3.org/1999/xlink" width="13px" height="13px" viewBox="28 164  13 13" xmlns="http://www.w3.org/2000/svg">
  <path d="M 28.5 166  A 1.5 1.5 0 0 1 30 164.5 L 39 164.5  A 1.5 1.5 0 0 1 40.5 166 L 40.5 175  A 1.5 1.5 0 0 1 39 176.5 L 30 176.5  A 1.5 1.5 0 0 1 28.5 175 L 28.5 166  Z " fill-rule="nonzero" fill="#f0f0f0" stroke="none" />
  <path d="M 28.5 166  A 1.5 1.5 0 0 1 30 164.5 L 39 164.5  A 1.5 1.5 0 0 1 40.5 166 L 40.5 175  A 1.5 1.5 0 0 1 39 176.5 L 30 176.5  A 1.5 1.5 0 0 1 28.5 175 L 28.5 166  Z " stroke-width="1" stroke="#797979" fill="none" />
</svg>