<?xml version="1.0" encoding="utf-8"?>
<svg version="1.1" xmlns:xlink="http://www.w3.org/1999/xlink" width="14px" height="14px" viewBox="10 68.5  14 14" xmlns="http://www.w3.org/2000/svg">
  <path d="M 10.5 70.5  A 1.5 1.5 0 0 1 12 69 L 22 69  A 1.5 1.5 0 0 1 23.5 70.5 L 23.5 80.5  A 1.5 1.5 0 0 1 22 82 L 12 82  A 1.5 1.5 0 0 1 10.5 80.5 L 10.5 70.5  Z " fill-rule="nonzero" fill="#f0f0f0" stroke="none" />
  <path d="M 10.5 70.5  A 1.5 1.5 0 0 1 12 69 L 22 69  A 1.5 1.5 0 0 1 23.5 70.5 L 23.5 80.5  A 1.5 1.5 0 0 1 22 82 L 12 82  A 1.5 1.5 0 0 1 10.5 80.5 L 10.5 70.5  Z " stroke-width="1" stroke="#797979" fill="none" />
  <path d="M 13 75.5  L 16 78.5  L 21 71.5  " stroke-width="3" stroke="#797979" fill="none" />
</svg>