<?xml version="1.0" encoding="utf-8"?>
<svg version="1.1" xmlns:xlink="http://www.w3.org/1999/xlink" width="12px" height="12px" viewBox="680 508.5  12 12" xmlns="http://www.w3.org/2000/svg">
  <path d="M 686 508.5  C 689.36 508.5  692 511.14  692 514.5  C 692 517.86  689.36 520.5  686 520.5  C 682.64 520.5  680 517.86  680 514.5  C 680 511.14  682.64 508.5  686 508.5  Z " fill-rule="nonzero" fill="#f0f0f0" stroke="none" />
  <path d="M 686 509  C 689.08 509  691.5 511.42  691.5 514.5  C 691.5 517.58  689.08 520  686 520  C 682.92 520  680.5 517.58  680.5 514.5  C 680.5 511.42  682.92 509  686 509  Z " stroke-width="1" stroke="#797979" fill="none" />
  <path d="M 686 517.5  C 684.32 517.5  683 516.18  683 514.5  C 683 512.82  684.32 511.5  686 511.5  C 687.68 511.5  689 512.82  689 514.5  C 689 516.18  687.68 517.5  686 517.5  " fill-rule="nonzero" fill="#797979" stroke="none" />
</svg>