<?xml version="1.0" encoding="utf-8"?>
<svg version="1.1" xmlns:xlink="http://www.w3.org/1999/xlink" width="12px" height="12px" viewBox="770 527.5  12 12" xmlns="http://www.w3.org/2000/svg">
  <path d="M 776 527.5  C 779.36 527.5  782 530.14  782 533.5  C 782 536.86  779.36 539.5  776 539.5  C 772.64 539.5  770 536.86  770 533.5  C 770 530.14  772.64 527.5  776 527.5  Z " fill-rule="nonzero" fill="#ffffff" stroke="none" />
  <path d="M 776 528  C 779.08 528  781.5 530.42  781.5 533.5  C 781.5 536.58  779.08 539  776 539  C 772.92 539  770.5 536.58  770.5 533.5  C 770.5 530.42  772.92 528  776 528  Z " stroke-width="1" stroke="#797979" fill="none" />
  <path d="M 776 536.5  C 774.32 536.5  773 535.18  773 533.5  C 773 531.82  774.32 530.5  776 530.5  C 777.68 530.5  779 531.82  779 533.5  C 779 535.18  777.68 536.5  776 536.5  " fill-rule="nonzero" fill="#797979" stroke="none" />
</svg>