<?xml version="1.0" encoding="utf-8"?>
<svg version="1.1" xmlns:xlink="http://www.w3.org/1999/xlink" width="12px" height="12px" viewBox="770 508.5  12 12" xmlns="http://www.w3.org/2000/svg">
  <path d="M 776 508.5  C 779.36 508.5  782 511.14  782 514.5  C 782 517.86  779.36 520.5  776 520.5  C 772.64 520.5  770 517.86  770 514.5  C 770 511.14  772.64 508.5  776 508.5  Z " fill-rule="nonzero" fill="#ffffff" stroke="none" />
  <path d="M 776 509  C 779.08 509  781.5 511.42  781.5 514.5  C 781.5 517.58  779.08 520  776 520  C 772.92 520  770.5 517.58  770.5 514.5  C 770.5 511.42  772.92 509  776 509  Z " stroke-width="1" stroke="#797979" fill="none" />
  <path d="M 776 517.5  C 774.32 517.5  773 516.18  773 514.5  C 773 512.82  774.32 511.5  776 511.5  C 777.68 511.5  779 512.82  779 514.5  C 779 516.18  777.68 517.5  776 517.5  " fill-rule="nonzero" fill="#797979" stroke="none" />
</svg>