<?xml version="1.0" encoding="utf-8"?>
<svg version="1.1" xmlns:xlink="http://www.w3.org/1999/xlink" width="12px" height="12px" viewBox="870 508.5  12 12" xmlns="http://www.w3.org/2000/svg">
  <path d="M 876 508.5  C 879.36 508.5  882 511.14  882 514.5  C 882 517.86  879.36 520.5  876 520.5  C 872.64 520.5  870 517.86  870 514.5  C 870 511.14  872.64 508.5  876 508.5  Z " fill-rule="nonzero" fill="#ffffff" stroke="none" />
  <path d="M 876 509  C 879.08 509  881.5 511.42  881.5 514.5  C 881.5 517.58  879.08 520  876 520  C 872.92 520  870.5 517.58  870.5 514.5  C 870.5 511.42  872.92 509  876 509  Z " stroke-width="1" stroke="#797979" fill="none" />
  <path d="M 876 517.5  C 874.32 517.5  873 516.18  873 514.5  C 873 512.82  874.32 511.5  876 511.5  C 877.68 511.5  879 512.82  879 514.5  C 879 516.18  877.68 517.5  876 517.5  " fill-rule="nonzero" fill="#797979" stroke="none" />
</svg>