<?xml version="1.0" encoding="utf-8"?>
<svg version="1.1" xmlns:xlink="http://www.w3.org/1999/xlink" width="12px" height="12px" viewBox="870 527.5  12 12" xmlns="http://www.w3.org/2000/svg">
  <path d="M 876 527.5  C 879.36 527.5  882 530.14  882 533.5  C 882 536.86  879.36 539.5  876 539.5  C 872.64 539.5  870 536.86  870 533.5  C 870 530.14  872.64 527.5  876 527.5  Z " fill-rule="nonzero" fill="#f0f0f0" stroke="none" />
  <path d="M 876 528  C 879.08 528  881.5 530.42  881.5 533.5  C 881.5 536.58  879.08 539  876 539  C 872.92 539  870.5 536.58  870.5 533.5  C 870.5 530.42  872.92 528  876 528  Z " stroke-width="1" stroke="#797979" fill="none" />
  <path d="M 876 536.5  C 874.32 536.5  873 535.18  873 533.5  C 873 531.82  874.32 530.5  876 530.5  C 877.68 530.5  879 531.82  879 533.5  C 879 535.18  877.68 536.5  876 536.5  " fill-rule="nonzero" fill="#797979" stroke="none" />
</svg>