<?xml version="1.0" encoding="utf-8"?>
<svg version="1.1" xmlns:xlink="http://www.w3.org/1999/xlink" width="12px" height="12px" viewBox="1047 508.5  12 12" xmlns="http://www.w3.org/2000/svg">
  <path d="M 1053 508.5  C 1056.36 508.5  1059 511.14  1059 514.5  C 1059 517.86  1056.36 520.5  1053 520.5  C 1049.64 520.5  1047 517.86  1047 514.5  C 1047 511.14  1049.64 508.5  1053 508.5  Z " fill-rule="nonzero" fill="#ffffff" stroke="none" />
  <path d="M 1053 509  C 1056.08 509  1058.5 511.42  1058.5 514.5  C 1058.5 517.58  1056.08 520  1053 520  C 1049.92 520  1047.5 517.58  1047.5 514.5  C 1047.5 511.42  1049.92 509  1053 509  Z " stroke-width="1" stroke="#797979" fill="none" />
  <path d="M 1053 517.5  C 1051.32 517.5  1050 516.18  1050 514.5  C 1050 512.82  1051.32 511.5  1053 511.5  C 1054.68 511.5  1056 512.82  1056 514.5  C 1056 516.18  1054.68 517.5  1053 517.5  " fill-rule="nonzero" fill="#797979" stroke="none" />
</svg>