<?xml version="1.0" encoding="utf-8"?>
<svg version="1.1" xmlns:xlink="http://www.w3.org/1999/xlink" width="12px" height="12px" viewBox="679 526.5  12 12" xmlns="http://www.w3.org/2000/svg">
  <path d="M 685 526.5  C 688.36 526.5  691 529.14  691 532.5  C 691 535.86  688.36 538.5  685 538.5  C 681.64 538.5  679 535.86  679 532.5  C 679 529.14  681.64 526.5  685 526.5  Z " fill-rule="nonzero" fill="#f0f0f0" stroke="none" />
  <path d="M 685 527  C 688.08 527  690.5 529.42  690.5 532.5  C 690.5 535.58  688.08 538  685 538  C 681.92 538  679.5 535.58  679.5 532.5  C 679.5 529.42  681.92 527  685 527  Z " stroke-width="1" stroke="#797979" fill="none" />
  <path d="M 685 535.5  C 683.32 535.5  682 534.18  682 532.5  C 682 530.82  683.32 529.5  685 529.5  C 686.68 529.5  688 530.82  688 532.5  C 688 534.18  686.68 535.5  685 535.5  " fill-rule="nonzero" fill="#797979" stroke="none" />
</svg>