<?xml version="1.0" encoding="utf-8"?>
<svg version="1.1" xmlns:xlink="http://www.w3.org/1999/xlink" width="12px" height="12px" viewBox="947 508.5  12 12" xmlns="http://www.w3.org/2000/svg">
  <path d="M 953 508.5  C 956.36 508.5  959 511.14  959 514.5  C 959 517.86  956.36 520.5  953 520.5  C 949.64 520.5  947 517.86  947 514.5  C 947 511.14  949.64 508.5  953 508.5  Z " fill-rule="nonzero" fill="#f0f0f0" stroke="none" />
  <path d="M 953 509  C 956.08 509  958.5 511.42  958.5 514.5  C 958.5 517.58  956.08 520  953 520  C 949.92 520  947.5 517.58  947.5 514.5  C 947.5 511.42  949.92 509  953 509  Z " stroke-width="1" stroke="#797979" fill="none" />
  <path d="M 953 517.5  C 951.32 517.5  950 516.18  950 514.5  C 950 512.82  951.32 511.5  953 511.5  C 954.68 511.5  956 512.82  956 514.5  C 956 516.18  954.68 517.5  953 517.5  " fill-rule="nonzero" fill="#797979" stroke="none" />
</svg>