<?xml version="1.0" encoding="utf-8"?>
<svg version="1.1" xmlns:xlink="http://www.w3.org/1999/xlink" width="12px" height="12px" viewBox="947 527.5  12 12" xmlns="http://www.w3.org/2000/svg">
  <path d="M 953 527.5  C 956.36 527.5  959 530.14  959 533.5  C 959 536.86  956.36 539.5  953 539.5  C 949.64 539.5  947 536.86  947 533.5  C 947 530.14  949.64 527.5  953 527.5  Z " fill-rule="nonzero" fill="#ffffff" stroke="none" />
  <path d="M 953 528  C 956.08 528  958.5 530.42  958.5 533.5  C 958.5 536.58  956.08 539  953 539  C 949.92 539  947.5 536.58  947.5 533.5  C 947.5 530.42  949.92 528  953 528  Z " stroke-width="1" stroke="#797979" fill="none" />
  <path d="M 953 536.5  C 951.32 536.5  950 535.18  950 533.5  C 950 531.82  951.32 530.5  953 530.5  C 954.68 530.5  956 531.82  956 533.5  C 956 535.18  954.68 536.5  953 536.5  " fill-rule="nonzero" fill="#797979" stroke="none" />
</svg>