<?xml version="1.0" encoding="utf-8"?>
<svg version="1.1" xmlns:xlink="http://www.w3.org/1999/xlink" width="13px" height="13px" viewBox="28 84  13 13" xmlns="http://www.w3.org/2000/svg">
  <path d="M 28.5 86  A 1.5 1.5 0 0 1 30 84.5 L 39 84.5  A 1.5 1.5 0 0 1 40.5 86 L 40.5 95  A 1.5 1.5 0 0 1 39 96.5 L 30 96.5  A 1.5 1.5 0 0 1 28.5 95 L 28.5 86  Z " fill-rule="nonzero" fill="#f0f0f0" stroke="none" />
  <path d="M 28.5 86  A 1.5 1.5 0 0 1 30 84.5 L 39 84.5  A 1.5 1.5 0 0 1 40.5 86 L 40.5 95  A 1.5 1.5 0 0 1 39 96.5 L 30 96.5  A 1.5 1.5 0 0 1 28.5 95 L 28.5 86  Z " stroke-width="1" stroke="#797979" fill="none" />
  <path d="M 30.7857142857143 90.5  L 33.5714285714286 93.2857142857143  L 38.2142857142857 86.7857142857143  " stroke-width="2.78571428571429" stroke="#797979" fill="none" />
</svg>