<?xml version="1.0" encoding="utf-8"?>
<svg version="1.1" xmlns:xlink="http://www.w3.org/1999/xlink" width="13px" height="12px" xmlns="http://www.w3.org/2000/svg">
  <defs>
    <mask fill="white" id="clip12">
      <path d="M 12.691270860077 4.9602157788267  C 12.8970902866923 5.17060013486177  13 5.41604855023601  13 5.69656102494943  C 13 5.98246797033041  12.8970902866923 6.22521915037087  12.691270860077 6.4248145650708  L 7.25930680359435 11.7006068779501  C 7.04236200256739 11.90020229265  6.78925973470261 12  6.5 12  C 6.20517757809157 12  5.9548566538297 11.90020229265  5.74903722721438 11.7006068779501  L 0.317073170731707 6.4248145650708  C 0.105691056910569 6.23061362103844  0 5.98786244099798  0 5.69656102494943  C 0 5.41065407956844  0.105691056910569 5.1652056641942  0.317073170731707 4.9602157788267  L 0.934531450577664 4.35333782872556  C 1.15147625160462 4.15374241402562  1.40457851946941 4.05394470667566  1.69383825417202 4.05394470667566  C 1.98866067608045 4.05394470667566  2.23898160034232 4.15374241402562  2.44480102695764 4.35333782872556  L 4.897946084724 6.73229939312205  L 4.897946084724 1.03573836817262  C 4.897946084724 0.755225893459204  5.00363714163457 0.512474713418745  5.21501925545571 0.307484828051248  C 5.42640136927685 0.102494942683748  5.67672229353873 0  5.96598202824133 0  L 7.03401797175867 0  C 7.32327770646128 0  7.57359863072315 0.102494942683748  7.78498074454429 0.307484828051248  C 7.99636285836543 0.512474713418745  8.102053915276 0.755225893459204  8.102053915276 1.03573836817262  L 8.102053915276 6.73229939312205  L 10.5551989730424 4.35333782872556  C 10.7610183996577 4.15374241402562  11.0113393239196 4.05394470667566  11.306161745828 4.05394470667566  C 11.5954214805306 4.05394470667566  11.8485237483954 4.15374241402562  12.0654685494223 4.35333782872556  L 12.691270860077 4.9602157788267  Z " fill-rule="evenodd" />
    </mask>
  </defs>
  <g transform="matrix(1 0 0 1 -898 -16 )">
    <path d="M 12.691270860077 4.9602157788267  C 12.8970902866923 5.17060013486177  13 5.41604855023601  13 5.69656102494943  C 13 5.98246797033041  12.8970902866923 6.22521915037087  12.691270860077 6.4248145650708  L 7.25930680359435 11.7006068779501  C 7.04236200256739 11.90020229265  6.78925973470261 12  6.5 12  C 6.20517757809157 12  5.9548566538297 11.90020229265  5.74903722721438 11.7006068779501  L 0.317073170731707 6.4248145650708  C 0.105691056910569 6.23061362103844  0 5.98786244099798  0 5.69656102494943  C 0 5.41065407956844  0.105691056910569 5.1652056641942  0.317073170731707 4.9602157788267  L 0.934531450577664 4.35333782872556  C 1.15147625160462 4.15374241402562  1.40457851946941 4.05394470667566  1.69383825417202 4.05394470667566  C 1.98866067608045 4.05394470667566  2.23898160034232 4.15374241402562  2.44480102695764 4.35333782872556  L 4.897946084724 6.73229939312205  L 4.897946084724 1.03573836817262  C 4.897946084724 0.755225893459204  5.00363714163457 0.512474713418745  5.21501925545571 0.307484828051248  C 5.42640136927685 0.102494942683748  5.67672229353873 0  5.96598202824133 0  L 7.03401797175867 0  C 7.32327770646128 0  7.57359863072315 0.102494942683748  7.78498074454429 0.307484828051248  C 7.99636285836543 0.512474713418745  8.102053915276 0.755225893459204  8.102053915276 1.03573836817262  L 8.102053915276 6.73229939312205  L 10.5551989730424 4.35333782872556  C 10.7610183996577 4.15374241402562  11.0113393239196 4.05394470667566  11.306161745828 4.05394470667566  C 11.5954214805306 4.05394470667566  11.8485237483954 4.15374241402562  12.0654685494223 4.35333782872556  L 12.691270860077 4.9602157788267  Z " fill-rule="nonzero" fill="#ffffff" stroke="none" transform="matrix(1 0 0 1 898 16 )" />
    <path d="M 12.691270860077 4.9602157788267  C 12.8970902866923 5.17060013486177  13 5.41604855023601  13 5.69656102494943  C 13 5.98246797033041  12.8970902866923 6.22521915037087  12.691270860077 6.4248145650708  L 7.25930680359435 11.7006068779501  C 7.04236200256739 11.90020229265  6.78925973470261 12  6.5 12  C 6.20517757809157 12  5.9548566538297 11.90020229265  5.74903722721438 11.7006068779501  L 0.317073170731707 6.4248145650708  C 0.105691056910569 6.23061362103844  0 5.98786244099798  0 5.69656102494943  C 0 5.41065407956844  0.105691056910569 5.1652056641942  0.317073170731707 4.9602157788267  L 0.934531450577664 4.35333782872556  C 1.15147625160462 4.15374241402562  1.40457851946941 4.05394470667566  1.69383825417202 4.05394470667566  C 1.98866067608045 4.05394470667566  2.23898160034232 4.15374241402562  2.44480102695764 4.35333782872556  L 4.897946084724 6.73229939312205  L 4.897946084724 1.03573836817262  C 4.897946084724 0.755225893459204  5.00363714163457 0.512474713418745  5.21501925545571 0.307484828051248  C 5.42640136927685 0.102494942683748  5.67672229353873 0  5.96598202824133 0  L 7.03401797175867 0  C 7.32327770646128 0  7.57359863072315 0.102494942683748  7.78498074454429 0.307484828051248  C 7.99636285836543 0.512474713418745  8.102053915276 0.755225893459204  8.102053915276 1.03573836817262  L 8.102053915276 6.73229939312205  L 10.5551989730424 4.35333782872556  C 10.7610183996577 4.15374241402562  11.0113393239196 4.05394470667566  11.306161745828 4.05394470667566  C 11.5954214805306 4.05394470667566  11.8485237483954 4.15374241402562  12.0654685494223 4.35333782872556  L 12.691270860077 4.9602157788267  Z " stroke-width="2" stroke="#217346" fill="none" transform="matrix(1 0 0 1 898 16 )" mask="url(#clip12)" />
  </g>
</svg>