<?xml version="1.0" encoding="utf-8"?>
<svg version="1.1" xmlns:xlink="http://www.w3.org/1999/xlink" width="13px" height="13px" viewBox="28 124  13 13" xmlns="http://www.w3.org/2000/svg">
  <path d="M 28.5 126  A 1.5 1.5 0 0 1 30 124.5 L 39 124.5  A 1.5 1.5 0 0 1 40.5 126 L 40.5 135  A 1.5 1.5 0 0 1 39 136.5 L 30 136.5  A 1.5 1.5 0 0 1 28.5 135 L 28.5 126  Z " fill-rule="nonzero" fill="#ffffff" stroke="none" fill-opacity="0" />
  <path d="M 28.5 126  A 1.5 1.5 0 0 1 30 124.5 L 39 124.5  A 1.5 1.5 0 0 1 40.5 126 L 40.5 135  A 1.5 1.5 0 0 1 39 136.5 L 30 136.5  A 1.5 1.5 0 0 1 28.5 135 L 28.5 126  Z " stroke-width="1" stroke="#797979" fill="none" />
  <path d="M 30.7857142857143 130.5  L 33.5714285714286 133.285714285714  L 38.2142857142857 126.785714285714  " stroke-width="2.78571428571429" stroke="#797979" fill="none" />
</svg>