<?xml version="1.0" encoding="utf-8"?>
<svg version="1.1" xmlns:xlink="http://www.w3.org/1999/xlink" width="14px" height="14px" viewBox="10 8.5  14 14" xmlns="http://www.w3.org/2000/svg">
  <path d="M 10.5 10.5  A 1.5 1.5 0 0 1 12 9 L 22 9  A 1.5 1.5 0 0 1 23.5 10.5 L 23.5 20.5  A 1.5 1.5 0 0 1 22 22 L 12 22  A 1.5 1.5 0 0 1 10.5 20.5 L 10.5 10.5  Z " fill-rule="nonzero" fill="#ffffff" stroke="none" />
  <path d="M 10.5 10.5  A 1.5 1.5 0 0 1 12 9 L 22 9  A 1.5 1.5 0 0 1 23.5 10.5 L 23.5 20.5  A 1.5 1.5 0 0 1 22 22 L 12 22  A 1.5 1.5 0 0 1 10.5 20.5 L 10.5 10.5  Z " stroke-width="1" stroke="#797979" fill="none" />
</svg>