<?xml version="1.0" encoding="utf-8"?>
<svg version="1.1" xmlns:xlink="http://www.w3.org/1999/xlink" width="221px" height="273px" xmlns="http://www.w3.org/2000/svg">
  <g transform="matrix(1 0 0 1 -360 -1753 )">
    <path d="M 360.5 2010.39283030675  C 360.5 2010.39283030675  360.5 1758  360.5 1758  C 360.5 1755.51471862576  362.514718625761 1753.5  365 1753.5  C 365 1753.5  576 1753.5  576 1753.5  C 578.485281374239 1753.5  580.5 1755.51471862576  580.5 1758  C 580.5 1758  580.5 2010.39283030675  580.5 2010.39283030675  C 580.5 2012.87811168099  578.485281374239 2014.89283030675  576 2014.89283030675  C 576 2014.89283030675  565.397493434181 2014.89283030675  565.397493434181 2014.89283030675  C 565.397493434181 2014.89283030675  555.716951454224 2024.61727353784  555.716951454224 2024.61727353784  C 555.716951454224 2024.61727353784  545.809647078574 2014.89283030675  545.809647078574 2014.89283030675  C 545.809647078574 2014.89283030675  365 2014.89283030675  365 2014.89283030675  C 362.514718625761 2014.89283030675  360.5 2012.87811168099  360.5 2010.39283030675  Z " fill-rule="nonzero" fill="#ffffff" stroke="none" />
    <path d="M 360 2010.39283030675  C 360 2010.39283030675  360 1758  360 1758  C 360 1755.23857625085  362.238576250846 1753  365 1753  C 365 1753  576 1753  576 1753  C 578.761423749154 1753  581 1755.23857625085  581 1758  C 581 1758  581 2010.39283030675  581 2010.39283030675  C 581 2013.1542540559  578.761423749154 2015.39283030675  576 2015.39283030675  C 576 2015.39283030675  565.605263157895 2015.39283030675  565.605263157895 2015.39283030675  C 565.605263157895 2015.39283030675  555.721030042918 2025.32188841202  555.721030042918 2025.32188841202  C 555.721030042918 2025.32188841202  545.605263157895 2015.39283030675  545.605263157895 2015.39283030675  C 545.605263157895 2015.39283030675  365 2015.39283030675  365 2015.39283030675  C 362.238576250846 2015.39283030675  360 2013.1542540559  360 2010.39283030675  Z M 361 2010.39283030675  C 361 2012.60196930607  362.790861000677 2014.39283030675  365 2014.39283030675  C 365 2014.39283030675  546.014030999255 2014.39283030675  546.014030999255 2014.39283030675  C 546.014030999255 2014.39283030675  555.712872865529 2023.91265866367  555.712872865529 2023.91265866367  C 555.712872865529 2023.91265866367  565.189723710468 2014.39283030675  565.189723710468 2014.39283030675  C 565.189723710468 2014.39283030675  576 2014.39283030675  576 2014.39283030675  C 578.209138999323 2014.39283030675  580 2012.60196930607  580 2010.39283030675  C 580 2010.39283030675  580 1758  580 1758  C 580 1755.79086100068  578.209138999323 1754  576 1754  C 576 1754  365 1754  365 1754  C 362.790861000677 1754  361 1755.79086100068  361 1758  C 361 1758  361 2010.39283030675  361 2010.39283030675  Z " fill-rule="nonzero" fill="#d7d7d7" stroke="none" />
  </g>
</svg>