<?xml version="1.0" encoding="utf-8"?>
<svg version="1.1" xmlns:xlink="http://www.w3.org/1999/xlink" width="271px" height="69px" xmlns="http://www.w3.org/2000/svg">
  <g transform="matrix(1 0 0 1 -469 -1957 )">
    <path d="M 469.5 2011.0156884773  C 469.5 2011.0156884773  469.5 1962  469.5 1962  C 469.5 1959.51471862576  471.514718625761 1957.5  474 1957.5  C 474 1957.5  735 1957.5  735 1957.5  C 737.485281374239 1957.5  739.5 1959.51471862576  739.5 1962  C 739.5 1962  739.5 2011.0156884773  739.5 2011.0156884773  C 739.5 2013.50096985154  737.485281374239 2015.5156884773  735 2015.5156884773  C 735 2015.5156884773  703.815812288128 2015.5156884773  703.815812288128 2015.5156884773  C 703.815812288128 2015.5156884773  694.688117490353 2025.27455944894  694.688117490353 2025.27455944894  C 694.688117490353 2025.27455944894  684.229821853746 2015.5156884773  684.229821853746 2015.5156884773  C 684.229821853746 2015.5156884773  474 2015.5156884773  474 2015.5156884773  C 471.514718625761 2015.5156884773  469.5 2013.50096985154  469.5 2011.0156884773  Z " fill-rule="nonzero" fill="#ffffff" stroke="none" />
    <path d="M 469 2011.0156884773  C 469 2011.0156884773  469 1962  469 1962  C 469 1959.23857625085  471.238576250846 1957  474 1957  C 474 1957  735 1957  735 1957  C 737.761423749154 1957  740 1959.23857625085  740 1962  C 740 1962  740 2011.0156884773  740 2011.0156884773  C 740 2013.77711222645  737.761423749154 2016.0156884773  735 2016.0156884773  C 735 2016.0156884773  704.0327728122 2016.0156884773  704.0327728122 2016.0156884773  C 704.0327728122 2016.0156884773  694.712136382447 2025.98084291188  694.712136382447 2025.98084291188  C 694.712136382447 2025.98084291188  684.0327728122 2016.0156884773  684.0327728122 2016.0156884773  C 684.0327728122 2016.0156884773  474 2016.0156884773  474 2016.0156884773  C 471.238576250846 2016.0156884773  469 2013.77711222645  469 2011.0156884773  Z M 470 2011.0156884773  C 470 2013.22482747662  471.790861000677 2015.0156884773  474 2015.0156884773  C 474 2015.0156884773  684.426870895291 2015.0156884773  684.426870895291 2015.0156884773  C 684.426870895291 2015.0156884773  694.664098598259 2024.568275986  694.664098598259 2024.568275986  C 694.664098598259 2024.568275986  703.598851764056 2015.0156884773  703.598851764056 2015.0156884773  C 703.598851764056 2015.0156884773  735 2015.0156884773  735 2015.0156884773  C 737.209138999323 2015.0156884773  739 2013.22482747662  739 2011.0156884773  C 739 2011.0156884773  739 1962  739 1962  C 739 1959.79086100068  737.209138999323 1958  735 1958  C 735 1958  474 1958  474 1958  C 471.790861000677 1958  470 1959.79086100068  470 1962  C 470 1962  470 2011.0156884773  470 2011.0156884773  Z " fill-rule="nonzero" fill="#d7d7d7" stroke="none" />
  </g>
</svg>