<?xml version="1.0" encoding="utf-8"?>
<svg version="1.1" xmlns:xlink="http://www.w3.org/1999/xlink" width="221px" height="273px" xmlns="http://www.w3.org/2000/svg">
  <g transform="matrix(1 0 0 1 -357 -1753 )">
    <path d="M 357.5 2010.39283030675  C 357.5 2010.39283030675  357.5 1758  357.5 1758  C 357.5 1755.51471862576  359.514718625761 1753.5  362 1753.5  C 362 1753.5  573 1753.5  573 1753.5  C 575.485281374239 1753.5  577.5 1755.51471862576  577.5 1758  C 577.5 1758  577.5 2010.39283030675  577.5 2010.39283030675  C 577.5 2012.87811168099  575.485281374239 2014.89283030675  573 2014.89283030675  C 573 2014.89283030675  562.397493434181 2014.89283030675  562.397493434181 2014.89283030675  C 562.397493434181 2014.89283030675  552.716951454224 2024.61727353784  552.716951454224 2024.61727353784  C 552.716951454224 2024.61727353784  542.809647078574 2014.89283030675  542.809647078574 2014.89283030675  C 542.809647078574 2014.89283030675  362 2014.89283030675  362 2014.89283030675  C 359.514718625761 2014.89283030675  357.5 2012.87811168099  357.5 2010.39283030675  Z " fill-rule="nonzero" fill="#ffffff" stroke="none" />
    <path d="M 357 2010.39283030675  C 357 2010.39283030675  357 1758  357 1758  C 357 1755.23857625085  359.238576250846 1753  362 1753  C 362 1753  573 1753  573 1753  C 575.761423749154 1753  578 1755.23857625085  578 1758  C 578 1758  578 2010.39283030675  578 2010.39283030675  C 578 2013.1542540559  575.761423749154 2015.39283030675  573 2015.39283030675  C 573 2015.39283030675  562.605263157895 2015.39283030675  562.605263157895 2015.39283030675  C 562.605263157895 2015.39283030675  552.721030042918 2025.32188841202  552.721030042918 2025.32188841202  C 552.721030042918 2025.32188841202  542.605263157895 2015.39283030675  542.605263157895 2015.39283030675  C 542.605263157895 2015.39283030675  362 2015.39283030675  362 2015.39283030675  C 359.238576250846 2015.39283030675  357 2013.1542540559  357 2010.39283030675  Z M 358 2010.39283030675  C 358 2012.60196930607  359.790861000677 2014.39283030675  362 2014.39283030675  C 362 2014.39283030675  543.014030999255 2014.39283030675  543.014030999255 2014.39283030675  C 543.014030999255 2014.39283030675  552.712872865529 2023.91265866367  552.712872865529 2023.91265866367  C 552.712872865529 2023.91265866367  562.189723710468 2014.39283030675  562.189723710468 2014.39283030675  C 562.189723710468 2014.39283030675  573 2014.39283030675  573 2014.39283030675  C 575.209138999323 2014.39283030675  577 2012.60196930607  577 2010.39283030675  C 577 2010.39283030675  577 1758  577 1758  C 577 1755.79086100068  575.209138999323 1754  573 1754  C 573 1754  362 1754  362 1754  C 359.790861000677 1754  358 1755.79086100068  358 1758  C 358 1758  358 2010.39283030675  358 2010.39283030675  Z " fill-rule="nonzero" fill="#d7d7d7" stroke="none" />
  </g>
</svg>