<?xml version="1.0" encoding="utf-8"?>
<svg version="1.1" xmlns:xlink="http://www.w3.org/1999/xlink" width="209px" height="65px" xmlns="http://www.w3.org/2000/svg">
  <g transform="matrix(1 0 0 1 -508 -1978 )">
    <path d="M 508.5 2032.0156884773  C 508.5 2032.0156884773  508.5 1983  508.5 1983  C 508.5 1980.51471862576  510.514718625761 1978.5  513 1978.5  C 513 1978.5  712 1978.5  712 1978.5  C 714.485281374239 1978.5  716.5 1980.51471862576  716.5 1983  C 716.5 1983  716.5 2032.0156884773  716.5 2032.0156884773  C 716.5 2034.50096985154  714.485281374239 2036.5156884773  712 2036.5156884773  C 712 2036.5156884773  702.770673743244 2036.5156884773  702.770673743244 2036.5156884773  C 702.770673743244 2036.5156884773  693.323826359951 2041.82907740472  693.323826359951 2041.82907740472  C 693.323826359951 2041.82907740472  683.0229977702 2036.5156884773  683.0229977702 2036.5156884773  C 683.0229977702 2036.5156884773  513 2036.5156884773  513 2036.5156884773  C 510.514718625761 2036.5156884773  508.5 2034.50096985154  508.5 2032.0156884773  Z " fill-rule="nonzero" fill="#ffffff" stroke="none" />
    <path d="M 508 2032.0156884773  C 508 2032.0156884773  508 1983  508 1983  C 508 1980.23857625085  510.238576250846 1978  513 1978  C 513 1978  712 1978  712 1978  C 714.761423749154 1978  717 1980.23857625085  717 1983  C 717 1983  717 2032.0156884773  717 2032.0156884773  C 717 2034.77711222645  714.761423749154 2037.0156884773  712 2037.0156884773  C 712 2037.0156884773  702.901639344262 2037.0156884773  702.901639344262 2037.0156884773  C 702.901639344262 2037.0156884773  693.334085778781 2042.39696871977  693.334085778781 2042.39696871977  C 693.334085778781 2042.39696871977  682.901639344262 2037.0156884773  682.901639344262 2037.0156884773  C 682.901639344262 2037.0156884773  513 2037.0156884773  513 2037.0156884773  C 510.238576250846 2037.0156884773  508 2034.77711222645  508 2032.0156884773  Z M 509 2032.0156884773  C 509 2034.22482747662  510.790861000677 2036.0156884773  513 2036.0156884773  C 513 2036.0156884773  683.144356196138 2036.0156884773  683.144356196138 2036.0156884773  C 683.144356196138 2036.0156884773  693.313566941121 2041.26118608967  693.313566941121 2041.26118608967  C 693.313566941121 2041.26118608967  702.639708142226 2036.0156884773  702.639708142226 2036.0156884773  C 702.639708142226 2036.0156884773  712 2036.0156884773  712 2036.0156884773  C 714.209138999323 2036.0156884773  716 2034.22482747662  716 2032.0156884773  C 716 2032.0156884773  716 1983  716 1983  C 716 1980.79086100068  714.209138999323 1979  712 1979  C 712 1979  513 1979  513 1979  C 510.790861000677 1979  509 1980.79086100068  509 1983  C 509 1983  509 2032.0156884773  509 2032.0156884773  Z " fill-rule="nonzero" fill="#d7d7d7" stroke="none" />
  </g>
</svg>