<?xml version="1.0" encoding="utf-8"?>
<svg version="1.1" xmlns:xlink="http://www.w3.org/1999/xlink" width="271px" height="69px" xmlns="http://www.w3.org/2000/svg">
  <g transform="matrix(1 0 0 1 -466 -1957 )">
    <path d="M 466.5 2011.0156884773  C 466.5 2011.0156884773  466.5 1962  466.5 1962  C 466.5 1959.51471862576  468.514718625761 1957.5  471 1957.5  C 471 1957.5  732 1957.5  732 1957.5  C 734.485281374239 1957.5  736.5 1959.51471862576  736.5 1962  C 736.5 1962  736.5 2011.0156884773  736.5 2011.0156884773  C 736.5 2013.50096985154  734.485281374239 2015.5156884773  732 2015.5156884773  C 732 2015.5156884773  700.815812288128 2015.5156884773  700.815812288128 2015.5156884773  C 700.815812288128 2015.5156884773  691.688117490353 2025.27455944894  691.688117490353 2025.27455944894  C 691.688117490353 2025.27455944894  681.229821853746 2015.5156884773  681.229821853746 2015.5156884773  C 681.229821853746 2015.5156884773  471 2015.5156884773  471 2015.5156884773  C 468.514718625761 2015.5156884773  466.5 2013.50096985154  466.5 2011.0156884773  Z " fill-rule="nonzero" fill="#ffffff" stroke="none" />
    <path d="M 466 2011.0156884773  C 466 2011.0156884773  466 1962  466 1962  C 466 1959.23857625085  468.238576250846 1957  471 1957  C 471 1957  732 1957  732 1957  C 734.761423749154 1957  737 1959.23857625085  737 1962  C 737 1962  737 2011.0156884773  737 2011.0156884773  C 737 2013.77711222645  734.761423749154 2016.0156884773  732 2016.0156884773  C 732 2016.0156884773  701.0327728122 2016.0156884773  701.0327728122 2016.0156884773  C 701.0327728122 2016.0156884773  691.712136382447 2025.98084291188  691.712136382447 2025.98084291188  C 691.712136382447 2025.98084291188  681.0327728122 2016.0156884773  681.0327728122 2016.0156884773  C 681.0327728122 2016.0156884773  471 2016.0156884773  471 2016.0156884773  C 468.238576250846 2016.0156884773  466 2013.77711222645  466 2011.0156884773  Z M 467 2011.0156884773  C 467 2013.22482747662  468.790861000677 2015.0156884773  471 2015.0156884773  C 471 2015.0156884773  681.426870895291 2015.0156884773  681.426870895291 2015.0156884773  C 681.426870895291 2015.0156884773  691.664098598259 2024.568275986  691.664098598259 2024.568275986  C 691.664098598259 2024.568275986  700.598851764056 2015.0156884773  700.598851764056 2015.0156884773  C 700.598851764056 2015.0156884773  732 2015.0156884773  732 2015.0156884773  C 734.209138999323 2015.0156884773  736 2013.22482747662  736 2011.0156884773  C 736 2011.0156884773  736 1962  736 1962  C 736 1959.79086100068  734.209138999323 1958  732 1958  C 732 1958  471 1958  471 1958  C 468.790861000677 1958  467 1959.79086100068  467 1962  C 467 1962  467 2011.0156884773  467 2011.0156884773  Z " fill-rule="nonzero" fill="#d7d7d7" stroke="none" />
  </g>
</svg>