<?xml version="1.0" encoding="utf-8"?>
<svg version="1.1" xmlns:xlink="http://www.w3.org/1999/xlink" width="209px" height="91px" xmlns="http://www.w3.org/2000/svg">
  <g transform="matrix(1 0 0 1 -411 -2771 )">
    <path d="M 411.5 2848.62196386822  C 411.5 2848.62196386822  411.5 2776  411.5 2776  C 411.5 2773.51471862576  413.514718625761 2771.5  416 2771.5  C 416 2771.5  615 2771.5  615 2771.5  C 617.485281374239 2771.5  619.5 2773.51471862576  619.5 2776  C 619.5 2776  619.5 2848.62196386822  619.5 2848.62196386822  C 619.5 2851.10724524245  617.485281374239 2853.12196386822  615 2853.12196386822  C 615 2853.12196386822  606.300256271835 2853.12196386822  606.300256271835 2853.12196386822  C 606.300256271835 2853.12196386822  596.325174721816 2860.53930108218  596.325174721816 2860.53930108218  C 596.325174721816 2860.53930108218  585.723322267427 2853.12196386822  585.723322267427 2853.12196386822  C 585.723322267427 2853.12196386822  416 2853.12196386822  416 2853.12196386822  C 413.514718625761 2853.12196386822  411.5 2851.10724524245  411.5 2848.62196386822  Z " fill-rule="nonzero" fill="#ffffff" stroke="none" />
    <path d="M 411 2848.62196386822  C 411 2848.62196386822  411 2776  411 2776  C 411 2773.23857625085  413.238576250846 2771  416 2771  C 416 2771  615 2771  615 2771  C 617.761423749154 2771  620 2773.23857625085  620 2776  C 620 2776  620 2848.62196386822  620 2848.62196386822  C 620 2851.38338761737  617.761423749154 2853.62196386822  615 2853.62196386822  C 615 2853.62196386822  606.465780051151 2853.62196386822  606.465780051151 2853.62196386822  C 606.465780051151 2853.62196386822  596.334085778781 2861.15575620768  596.334085778781 2861.15575620768  C 596.334085778781 2861.15575620768  585.565780051151 2853.62196386822  585.565780051151 2853.62196386822  C 585.565780051151 2853.62196386822  416 2853.62196386822  416 2853.62196386822  C 413.238576250846 2853.62196386822  411 2851.38338761737  411 2848.62196386822  Z M 412 2848.62196386822  C 412 2850.83110286754  413.790861000677 2852.62196386822  416 2852.62196386822  C 416 2852.62196386822  585.880864483705 2852.62196386822  585.880864483705 2852.62196386822  C 585.880864483705 2852.62196386822  596.316263664852 2859.92284595669  596.316263664852 2859.92284595669  C 596.316263664852 2859.92284595669  606.134732492518 2852.62196386822  606.134732492518 2852.62196386822  C 606.134732492518 2852.62196386822  615 2852.62196386822  615 2852.62196386822  C 617.209138999323 2852.62196386822  619 2850.83110286754  619 2848.62196386822  C 619 2848.62196386822  619 2776  619 2776  C 619 2773.79086100068  617.209138999323 2772  615 2772  C 615 2772  416 2772  416 2772  C 413.790861000677 2772  412 2773.79086100068  412 2776  C 412 2776  412 2848.62196386822  412 2848.62196386822  Z " fill-rule="nonzero" fill="#d7d7d7" stroke="none" />
  </g>
</svg>