<?xml version="1.0" encoding="utf-8"?>
<svg version="1.1" xmlns:xlink="http://www.w3.org/1999/xlink" width="14px" height="14px" viewBox="284 179.5  14 14" xmlns="http://www.w3.org/2000/svg">
  <path d="M 291 179.5  C 294.92 179.5  298 182.58  298 186.5  C 298 190.42  294.92 193.5  291 193.5  C 287.08 193.5  284 190.42  284 186.5  C 284 182.58  287.08 179.5  291 179.5  Z " fill-rule="nonzero" fill="#ffffff" stroke="none" />
  <path d="M 291 180  C 294.64 180  297.5 182.86  297.5 186.5  C 297.5 190.14  294.64 193  291 193  C 287.36 193  284.5 190.14  284.5 186.5  C 284.5 182.86  287.36 180  291 180  Z " stroke-width="1" stroke="#797979" fill="none" />
  <path d="M 291 190  C 289.04 190  287.5 188.46  287.5 186.5  C 287.5 184.54  289.04 183  291 183  C 292.96 183  294.5 184.54  294.5 186.5  C 294.5 188.46  292.96 190  291 190  " fill-rule="nonzero" fill="#797979" stroke="none" />
</svg>