<?xml version="1.0" encoding="utf-8"?>
<svg version="1.1" xmlns:xlink="http://www.w3.org/1999/xlink" width="14px" height="14px" viewBox="416 179.5  14 14" xmlns="http://www.w3.org/2000/svg">
  <path d="M 423 179.5  C 426.92 179.5  430 182.58  430 186.5  C 430 190.42  426.92 193.5  423 193.5  C 419.08 193.5  416 190.42  416 186.5  C 416 182.58  419.08 179.5  423 179.5  Z " fill-rule="nonzero" fill="#f0f0f0" stroke="none" />
  <path d="M 423 180  C 426.64 180  429.5 182.86  429.5 186.5  C 429.5 190.14  426.64 193  423 193  C 419.36 193  416.5 190.14  416.5 186.5  C 416.5 182.86  419.36 180  423 180  Z " stroke-width="1" stroke="#797979" fill="none" />
  <path d="M 423 190  C 421.04 190  419.5 188.46  419.5 186.5  C 419.5 184.54  421.04 183  423 183  C 424.96 183  426.5 184.54  426.5 186.5  C 426.5 188.46  424.96 190  423 190  " fill-rule="nonzero" fill="#797979" stroke="none" />
</svg>