<?xml version="1.0" encoding="utf-8"?>
<svg version="1.1" xmlns:xlink="http://www.w3.org/1999/xlink" width="16px" height="16px" viewBox="66 197  16 16" xmlns="http://www.w3.org/2000/svg">
  <path d="M 74 197  C 78.48 197  82 200.52  82 205  C 82 209.48  78.48 213  74 213  C 69.52 213  66 209.48  66 205  C 66 200.52  69.52 197  74 197  Z " fill-rule="nonzero" fill="#f0f0f0" stroke="none" />
  <path d="M 74 197.5  C 78.2 197.5  81.5 200.8  81.5 205  C 81.5 209.2  78.2 212.5  74 212.5  C 69.8 212.5  66.5 209.2  66.5 205  C 66.5 200.8  69.8 197.5  74 197.5  Z " stroke-width="1" stroke="#797979" fill="none" />
  <path d="M 74 209  C 71.76 209  70 207.24  70 205  C 70 202.76  71.76 201  74 201  C 76.24 201  78 202.76  78 205  C 78 207.24  76.24 209  74 209  " fill-rule="nonzero" fill="#797979" stroke="none" />
</svg>