<?xml version="1.0" encoding="utf-8"?>
<svg version="1.1" xmlns:xlink="http://www.w3.org/1999/xlink" width="16px" height="16px" viewBox="0 181  16 16" xmlns="http://www.w3.org/2000/svg">
  <path d="M 8 181  C 12.48 181  16 184.52  16 189  C 16 193.48  12.48 197  8 197  C 3.52 197  0 193.48  0 189  C 0 184.52  3.52 181  8 181  Z " fill-rule="nonzero" fill="#f0f0f0" stroke="none" />
  <path d="M 8 181.5  C 12.2 181.5  15.5 184.8  15.5 189  C 15.5 193.2  12.2 196.5  8 196.5  C 3.8 196.5  0.5 193.2  0.5 189  C 0.5 184.8  3.8 181.5  8 181.5  Z " stroke-width="1" stroke="#797979" fill="none" />
  <path d="M 8 193  C 5.76 193  4 191.24  4 189  C 4 186.76  5.76 185  8 185  C 10.24 185  12 186.76  12 189  C 12 191.24  10.24 193  8 193  " fill-rule="nonzero" fill="#797979" stroke="none" />
</svg>