<?xml version="1.0" encoding="utf-8"?>
<svg version="1.1" xmlns:xlink="http://www.w3.org/1999/xlink" width="16px" height="16px" viewBox="198 149  16 16" xmlns="http://www.w3.org/2000/svg">
  <path d="M 206 149  C 210.48 149  214 152.52  214 157  C 214 161.48  210.48 165  206 165  C 201.52 165  198 161.48  198 157  C 198 152.52  201.52 149  206 149  Z " fill-rule="nonzero" fill="#ffffff" stroke="none" />
  <path d="M 206 149.5  C 210.2 149.5  213.5 152.8  213.5 157  C 213.5 161.2  210.2 164.5  206 164.5  C 201.8 164.5  198.5 161.2  198.5 157  C 198.5 152.8  201.8 149.5  206 149.5  Z " stroke-width="1" stroke="#797979" fill="none" />
  <path d="M 206 161  C 203.76 161  202 159.24  202 157  C 202 154.76  203.76 153  206 153  C 208.24 153  210 154.76  210 157  C 210 159.24  208.24 161  206 161  " fill-rule="nonzero" fill="#797979" stroke="none" />
</svg>