<?xml version="1.0" encoding="utf-8"?>
<svg version="1.1" xmlns:xlink="http://www.w3.org/1999/xlink" width="14px" height="14px" viewBox="415 232.5  14 14" xmlns="http://www.w3.org/2000/svg">
  <path d="M 422 232.5  C 425.92 232.5  429 235.58  429 239.5  C 429 243.42  425.92 246.5  422 246.5  C 418.08 246.5  415 243.42  415 239.5  C 415 235.58  418.08 232.5  422 232.5  Z " fill-rule="nonzero" fill="#ffffff" stroke="none" />
  <path d="M 422 233  C 425.64 233  428.5 235.86  428.5 239.5  C 428.5 243.14  425.64 246  422 246  C 418.36 246  415.5 243.14  415.5 239.5  C 415.5 235.86  418.36 233  422 233  Z " stroke-width="1" stroke="#797979" fill="none" />
  <path d="M 422 243  C 420.04 243  418.5 241.46  418.5 239.5  C 418.5 237.54  420.04 236  422 236  C 423.96 236  425.5 237.54  425.5 239.5  C 425.5 241.46  423.96 243  422 243  " fill-rule="nonzero" fill="#797979" stroke="none" />
</svg>