<?xml version="1.0" encoding="utf-8"?>
<svg version="1.1" xmlns:xlink="http://www.w3.org/1999/xlink" width="310px" height="69px" xmlns="http://www.w3.org/2000/svg">
  <g transform="matrix(1 0 0 1 -434 -1957 )">
    <path d="M 434.5 2011.0156884773  C 434.5 2011.0156884773  434.5 1962  434.5 1962  C 434.5 1959.51471862576  436.514718625761 1957.5  439 1957.5  C 439 1957.5  739 1957.5  739 1957.5  C 741.485281374239 1957.5  743.5 1959.51471862576  743.5 1962  C 743.5 1962  743.5 2011.0156884773  743.5 2011.0156884773  C 743.5 2013.50096985154  741.485281374239 2015.5156884773  739 2015.5156884773  C 739 2015.5156884773  702.012715478698 2015.5156884773  702.012715478698 2015.5156884773  C 702.012715478698 2015.5156884773  692.170249032401 2025.30011933703  692.170249032401 2025.30011933703  C 692.170249032401 2025.30011933703  680.801706494074 2015.5156884773  680.801706494074 2015.5156884773  C 680.801706494074 2015.5156884773  439 2015.5156884773  439 2015.5156884773  C 436.514718625761 2015.5156884773  434.5 2013.50096985154  434.5 2011.0156884773  Z " fill-rule="nonzero" fill="#ffffff" stroke="none" />
    <path d="M 434 2011.0156884773  C 434 2011.0156884773  434 1962  434 1962  C 434 1959.23857625085  436.238576250846 1957  439 1957  C 439 1957  739 1957  739 1957  C 741.761423749154 1957  744 1959.23857625085  744 1962  C 744 1962  744 2011.0156884773  744 2011.0156884773  C 744 2013.77711222645  741.761423749154 2016.0156884773  739 2016.0156884773  C 739 2016.0156884773  702.218956723728 2016.0156884773  702.218956723728 2016.0156884773  C 702.218956723728 2016.0156884773  692.194694754828 2025.98084291188  692.194694754828 2025.98084291188  C 692.194694754828 2025.98084291188  680.616169267282 2016.0156884773  680.616169267282 2016.0156884773  C 680.616169267282 2016.0156884773  439 2016.0156884773  439 2016.0156884773  C 436.238576250846 2016.0156884773  434 2013.77711222645  434 2011.0156884773  Z M 435 2011.0156884773  C 435 2013.22482747662  436.790861000677 2015.0156884773  439 2015.0156884773  C 439 2015.0156884773  680.987243720868 2015.0156884773  680.987243720868 2015.0156884773  C 680.987243720868 2015.0156884773  692.145803309974 2024.61939576218  692.145803309974 2024.61939576218  C 692.145803309974 2024.61939576218  701.806474233668 2015.0156884773  701.806474233668 2015.0156884773  C 701.806474233668 2015.0156884773  739 2015.0156884773  739 2015.0156884773  C 741.209138999323 2015.0156884773  743 2013.22482747662  743 2011.0156884773  C 743 2011.0156884773  743 1962  743 1962  C 743 1959.79086100068  741.209138999323 1958  739 1958  C 739 1958  439 1958  439 1958  C 436.790861000677 1958  435 1959.79086100068  435 1962  C 435 1962  435 2011.0156884773  435 2011.0156884773  Z " fill-rule="nonzero" fill="#d7d7d7" stroke="none" />
  </g>
</svg>