<?xml version="1.0" encoding="utf-8"?>
<svg version="1.1" xmlns:xlink="http://www.w3.org/1999/xlink" width="14px" height="14px" viewBox="350 135.5  14 14" xmlns="http://www.w3.org/2000/svg">
  <path d="M 357 135.5  C 360.92 135.5  364 138.58  364 142.5  C 364 146.42  360.92 149.5  357 149.5  C 353.08 149.5  350 146.42  350 142.5  C 350 138.58  353.08 135.5  357 135.5  Z " fill-rule="nonzero" fill="#ffffff" stroke="none" />
  <path d="M 357 136  C 360.64 136  363.5 138.86  363.5 142.5  C 363.5 146.14  360.64 149  357 149  C 353.36 149  350.5 146.14  350.5 142.5  C 350.5 138.86  353.36 136  357 136  Z " stroke-width="1" stroke="#797979" fill="none" />
  <path d="M 357 146  C 355.04 146  353.5 144.46  353.5 142.5  C 353.5 140.54  355.04 139  357 139  C 358.96 139  360.5 140.54  360.5 142.5  C 360.5 144.46  358.96 146  357 146  " fill-rule="nonzero" fill="#797979" stroke="none" />
</svg>