<?xml version="1.0" encoding="utf-8"?>
<svg version="1.1" xmlns:xlink="http://www.w3.org/1999/xlink" width="14px" height="14px" viewBox="547 157.5  14 14" xmlns="http://www.w3.org/2000/svg">
  <path d="M 554 157.5  C 557.92 157.5  561 160.58  561 164.5  C 561 168.42  557.92 171.5  554 171.5  C 550.08 171.5  547 168.42  547 164.5  C 547 160.58  550.08 157.5  554 157.5  Z " fill-rule="nonzero" fill="#f0f0f0" stroke="none" />
  <path d="M 554 158  C 557.64 158  560.5 160.86  560.5 164.5  C 560.5 168.14  557.64 171  554 171  C 550.36 171  547.5 168.14  547.5 164.5  C 547.5 160.86  550.36 158  554 158  Z " stroke-width="1" stroke="#797979" fill="none" />
  <path d="M 554 168  C 552.04 168  550.5 166.46  550.5 164.5  C 550.5 162.54  552.04 161  554 161  C 555.96 161  557.5 162.54  557.5 164.5  C 557.5 166.46  555.96 168  554 168  " fill-rule="nonzero" fill="#797979" stroke="none" />
</svg>