<?xml version="1.0" encoding="utf-8"?>
<svg version="1.1" xmlns:xlink="http://www.w3.org/1999/xlink" width="14px" height="14px" viewBox="482 179.5  14 14" xmlns="http://www.w3.org/2000/svg">
  <path d="M 489 179.5  C 492.92 179.5  496 182.58  496 186.5  C 496 190.42  492.92 193.5  489 193.5  C 485.08 193.5  482 190.42  482 186.5  C 482 182.58  485.08 179.5  489 179.5  Z " fill-rule="nonzero" fill="#f0f0f0" stroke="none" />
  <path d="M 489 180  C 492.64 180  495.5 182.86  495.5 186.5  C 495.5 190.14  492.64 193  489 193  C 485.36 193  482.5 190.14  482.5 186.5  C 482.5 182.86  485.36 180  489 180  Z " stroke-width="1" stroke="#797979" fill="none" />
  <path d="M 489 190  C 487.04 190  485.5 188.46  485.5 186.5  C 485.5 184.54  487.04 183  489 183  C 490.96 183  492.5 184.54  492.5 186.5  C 492.5 188.46  490.96 190  489 190  " fill-rule="nonzero" fill="#797979" stroke="none" />
</svg>