<?xml version="1.0" encoding="utf-8"?>
<svg version="1.1" xmlns:xlink="http://www.w3.org/1999/xlink" width="14px" height="14px" viewBox="350 157.5  14 14" xmlns="http://www.w3.org/2000/svg">
  <path d="M 357 157.5  C 360.92 157.5  364 160.58  364 164.5  C 364 168.42  360.92 171.5  357 171.5  C 353.08 171.5  350 168.42  350 164.5  C 350 160.58  353.08 157.5  357 157.5  Z " fill-rule="nonzero" fill="#ffffff" stroke="none" />
  <path d="M 357 158  C 360.64 158  363.5 160.86  363.5 164.5  C 363.5 168.14  360.64 171  357 171  C 353.36 171  350.5 168.14  350.5 164.5  C 350.5 160.86  353.36 158  357 158  Z " stroke-width="1" stroke="#797979" fill="none" />
  <path d="M 357 168  C 355.04 168  353.5 166.46  353.5 164.5  C 353.5 162.54  355.04 161  357 161  C 358.96 161  360.5 162.54  360.5 164.5  C 360.5 166.46  358.96 168  357 168  " fill-rule="nonzero" fill="#797979" stroke="none" />
</svg>