<?xml version="1.0" encoding="utf-8"?>
<svg version="1.1" xmlns:xlink="http://www.w3.org/1999/xlink" width="14px" height="14px" viewBox="614 157.5  14 14" xmlns="http://www.w3.org/2000/svg">
  <path d="M 621 157.5  C 624.92 157.5  628 160.58  628 164.5  C 628 168.42  624.92 171.5  621 171.5  C 617.08 171.5  614 168.42  614 164.5  C 614 160.58  617.08 157.5  621 157.5  Z " fill-rule="nonzero" fill="#ffffff" stroke="none" />
  <path d="M 621 158  C 624.64 158  627.5 160.86  627.5 164.5  C 627.5 168.14  624.64 171  621 171  C 617.36 171  614.5 168.14  614.5 164.5  C 614.5 160.86  617.36 158  621 158  Z " stroke-width="1" stroke="#797979" fill="none" />
  <path d="M 621 168  C 619.04 168  617.5 166.46  617.5 164.5  C 617.5 162.54  619.04 161  621 161  C 622.96 161  624.5 162.54  624.5 164.5  C 624.5 166.46  622.96 168  621 168  " fill-rule="nonzero" fill="#797979" stroke="none" />
</svg>