<?xml version="1.0" encoding="utf-8"?>
<svg version="1.1" xmlns:xlink="http://www.w3.org/1999/xlink" width="14px" height="14px" viewBox="614 179.5  14 14" xmlns="http://www.w3.org/2000/svg">
  <path d="M 621 179.5  C 624.92 179.5  628 182.58  628 186.5  C 628 190.42  624.92 193.5  621 193.5  C 617.08 193.5  614 190.42  614 186.5  C 614 182.58  617.08 179.5  621 179.5  Z " fill-rule="nonzero" fill="#f0f0f0" stroke="none" />
  <path d="M 621 180  C 624.64 180  627.5 182.86  627.5 186.5  C 627.5 190.14  624.64 193  621 193  C 617.36 193  614.5 190.14  614.5 186.5  C 614.5 182.86  617.36 180  621 180  Z " stroke-width="1" stroke="#797979" fill="none" />
  <path d="M 621 190  C 619.04 190  617.5 188.46  617.5 186.5  C 617.5 184.54  619.04 183  621 183  C 622.96 183  624.5 184.54  624.5 186.5  C 624.5 188.46  622.96 190  621 190  " fill-rule="nonzero" fill="#797979" stroke="none" />
</svg>