<?xml version="1.0" encoding="utf-8"?>
<svg version="1.1" xmlns:xlink="http://www.w3.org/1999/xlink" width="16px" height="16px" viewBox="132 149  16 16" xmlns="http://www.w3.org/2000/svg">
  <path d="M 140 149  C 144.48 149  148 152.52  148 157  C 148 161.48  144.48 165  140 165  C 135.52 165  132 161.48  132 157  C 132 152.52  135.52 149  140 149  Z " fill-rule="nonzero" fill="#f0f0f0" stroke="none" />
  <path d="M 140 149.5  C 144.2 149.5  147.5 152.8  147.5 157  C 147.5 161.2  144.2 164.5  140 164.5  C 135.8 164.5  132.5 161.2  132.5 157  C 132.5 152.8  135.8 149.5  140 149.5  Z " stroke-width="1" stroke="#797979" fill="none" />
  <path d="M 140 161  C 137.76 161  136 159.24  136 157  C 136 154.76  137.76 153  140 153  C 142.24 153  144 154.76  144 157  C 144 159.24  142.24 161  140 161  " fill-rule="nonzero" fill="#797979" stroke="none" />
</svg>