<?xml version="1.0" encoding="utf-8"?>
<svg version="1.1" xmlns:xlink="http://www.w3.org/1999/xlink" width="16px" height="16px" viewBox="132 165  16 16" xmlns="http://www.w3.org/2000/svg">
  <path d="M 140 165  C 144.48 165  148 168.52  148 173  C 148 177.48  144.48 181  140 181  C 135.52 181  132 177.48  132 173  C 132 168.52  135.52 165  140 165  Z " fill-rule="nonzero" fill="#f0f0f0" stroke="none" />
  <path d="M 140 165.5  C 144.2 165.5  147.5 168.8  147.5 173  C 147.5 177.2  144.2 180.5  140 180.5  C 135.8 180.5  132.5 177.2  132.5 173  C 132.5 168.8  135.8 165.5  140 165.5  Z " stroke-width="1" stroke="#797979" fill="none" />
  <path d="M 140 177  C 137.76 177  136 175.24  136 173  C 136 170.76  137.76 169  140 169  C 142.24 169  144 170.76  144 173  C 144 175.24  142.24 177  140 177  " fill-rule="nonzero" fill="#797979" stroke="none" />
</svg>