<?xml version="1.0" encoding="utf-8"?>
<svg version="1.1" xmlns:xlink="http://www.w3.org/1999/xlink" width="16px" height="16px" viewBox="132 197  16 16" xmlns="http://www.w3.org/2000/svg">
  <path d="M 140 197  C 144.48 197  148 200.52  148 205  C 148 209.48  144.48 213  140 213  C 135.52 213  132 209.48  132 205  C 132 200.52  135.52 197  140 197  Z " fill-rule="nonzero" fill="#ffffff" stroke="none" />
  <path d="M 140 197.5  C 144.2 197.5  147.5 200.8  147.5 205  C 147.5 209.2  144.2 212.5  140 212.5  C 135.8 212.5  132.5 209.2  132.5 205  C 132.5 200.8  135.8 197.5  140 197.5  Z " stroke-width="1" stroke="#797979" fill="none" />
  <path d="M 140 209  C 137.76 209  136 207.24  136 205  C 136 202.76  137.76 201  140 201  C 142.24 201  144 202.76  144 205  C 144 207.24  142.24 209  140 209  " fill-rule="nonzero" fill="#797979" stroke="none" />
</svg>