<?xml version="1.0" encoding="utf-8"?>
<svg version="1.1" xmlns:xlink="http://www.w3.org/1999/xlink" width="16px" height="16px" viewBox="66 117  16 16" xmlns="http://www.w3.org/2000/svg">
  <path d="M 74 117  C 78.48 117  82 120.52  82 125  C 82 129.48  78.48 133  74 133  C 69.52 133  66 129.48  66 125  C 66 120.52  69.52 117  74 117  Z " fill-rule="nonzero" fill="#ffffff" stroke="none" />
  <path d="M 74 117.5  C 78.2 117.5  81.5 120.8  81.5 125  C 81.5 129.2  78.2 132.5  74 132.5  C 69.8 132.5  66.5 129.2  66.5 125  C 66.5 120.8  69.8 117.5  74 117.5  Z " stroke-width="1" stroke="#797979" fill="none" />
  <path d="M 74 129  C 71.76 129  70 127.24  70 125  C 70 122.76  71.76 121  74 121  C 76.24 121  78 122.76  78 125  C 78 127.24  76.24 129  74 129  " fill-rule="nonzero" fill="#797979" stroke="none" />
</svg>