<?xml version="1.0" encoding="utf-8"?>
<svg version="1.1" xmlns:xlink="http://www.w3.org/1999/xlink" width="16px" height="16px" viewBox="263 149  16 16" xmlns="http://www.w3.org/2000/svg">
  <path d="M 271 149  C 275.48 149  279 152.52  279 157  C 279 161.48  275.48 165  271 165  C 266.52 165  263 161.48  263 157  C 263 152.52  266.52 149  271 149  Z " fill-rule="nonzero" fill="#ffffff" stroke="none" />
  <path d="M 271 149.5  C 275.2 149.5  278.5 152.8  278.5 157  C 278.5 161.2  275.2 164.5  271 164.5  C 266.8 164.5  263.5 161.2  263.5 157  C 263.5 152.8  266.8 149.5  271 149.5  Z " stroke-width="1" stroke="#797979" fill="none" />
  <path d="M 271 161  C 268.76 161  267 159.24  267 157  C 267 154.76  268.76 153  271 153  C 273.24 153  275 154.76  275 157  C 275 159.24  273.24 161  271 161  " fill-rule="nonzero" fill="#797979" stroke="none" />
</svg>