<?xml version="1.0" encoding="utf-8"?>
<svg version="1.1" xmlns:xlink="http://www.w3.org/1999/xlink" width="16px" height="16px" viewBox="330 229  16 16" xmlns="http://www.w3.org/2000/svg">
  <path d="M 338 229  C 342.48 229  346 232.52  346 237  C 346 241.48  342.48 245  338 245  C 333.52 245  330 241.48  330 237  C 330 232.52  333.52 229  338 229  Z " fill-rule="nonzero" fill="#f0f0f0" stroke="none" />
  <path d="M 338 229.5  C 342.2 229.5  345.5 232.8  345.5 237  C 345.5 241.2  342.2 244.5  338 244.5  C 333.8 244.5  330.5 241.2  330.5 237  C 330.5 232.8  333.8 229.5  338 229.5  Z " stroke-width="1" stroke="#797979" fill="none" />
  <path d="M 338 241  C 335.76 241  334 239.24  334 237  C 334 234.76  335.76 233  338 233  C 340.24 233  342 234.76  342 237  C 342 239.24  340.24 241  338 241  " fill-rule="nonzero" fill="#797979" stroke="none" />
</svg>