<?xml version="1.0" encoding="utf-8"?>
<svg version="1.1" xmlns:xlink="http://www.w3.org/1999/xlink" width="16px" height="16px" viewBox="263 117  16 16" xmlns="http://www.w3.org/2000/svg">
  <path d="M 271 117  C 275.48 117  279 120.52  279 125  C 279 129.48  275.48 133  271 133  C 266.52 133  263 129.48  263 125  C 263 120.52  266.52 117  271 117  Z " fill-rule="nonzero" fill="#f0f0f0" stroke="none" />
  <path d="M 271 117.5  C 275.2 117.5  278.5 120.8  278.5 125  C 278.5 129.2  275.2 132.5  271 132.5  C 266.8 132.5  263.5 129.2  263.5 125  C 263.5 120.8  266.8 117.5  271 117.5  Z " stroke-width="1" stroke="#797979" fill="none" />
  <path d="M 271 129  C 268.76 129  267 127.24  267 125  C 267 122.76  268.76 121  271 121  C 273.24 121  275 122.76  275 125  C 275 127.24  273.24 129  271 129  " fill-rule="nonzero" fill="#797979" stroke="none" />
</svg>