<?xml version="1.0" encoding="utf-8"?>
<svg version="1.1" xmlns:xlink="http://www.w3.org/1999/xlink" width="12px" height="12px" xmlns="http://www.w3.org/2000/svg">
  <g transform="matrix(1 0 0 1 -750 -57 )">
    <path d="M 3 8  L 3 11  L 9 11  L 9 8  L 3 8  Z M 10 7.75  L 10 11  L 11 11  L 11 4  C 11 3.92708333333333  10.9739583333333 3.82682291666667  10.921875 3.69921875  C 10.8697916666667 3.57161458333333  10.8177083333333 3.48177083333333  10.765625 3.4296875  L 8.5703125 1.234375  C 8.51822916666667 1.18229166666667  8.4296875 1.13020833333333  8.3046875 1.078125  C 8.1796875 1.02604166666667  8.078125 1  8 1  L 8 4.25  C 8 4.45833333333333  7.92708333333333 4.63541666666667  7.78125 4.78125  C 7.63541666666667 4.92708333333333  7.45833333333333 5  7.25 5  L 2.75 5  C 2.54166666666667 5  2.36458333333333 4.92708333333333  2.21875 4.78125  C 2.07291666666667 4.63541666666667  2 4.45833333333333  2 4.25  L 2 1  L 1 1  L 1 11  L 2 11  L 2 7.75  C 2 7.54166666666667  2.07291666666667 7.36458333333333  2.21875 7.21875  C 2.36458333333333 7.07291666666667  2.54166666666667 7  2.75 7  L 9.25 7  C 9.45833333333333 7  9.63541666666667 7.07291666666667  9.78125 7.21875  C 9.92708333333333 7.36458333333333  10 7.54166666666667  10 7.75  Z M 6.92578125 3.92578125  C 6.97526041666667 3.87630208333333  7 3.81770833333333  7 3.75  L 7 1.25  C 7 1.18229166666667  6.97526041666667 1.12369791666667  6.92578125 1.07421875  C 6.87630208333333 1.02473958333333  6.81770833333333 1  6.75 1  L 5.25 1  C 5.18229166666667 1  5.12369791666667 1.02473958333333  5.07421875 1.07421875  C 5.02473958333333 1.12369791666667  5 1.18229166666667  5 1.25  L 5 3.75  C 5 3.81770833333333  5.02473958333333 3.87630208333333  5.07421875 3.92578125  C 5.12369791666667 3.97526041666667  5.18229166666667 4  5.25 4  L 6.75 4  C 6.81770833333333 4  6.87630208333333 3.97526041666667  6.92578125 3.92578125  Z M 11.84375 3.3125  C 11.9479166666667 3.5625  12 3.79166666666667  12 4  L 12 11.25  C 12 11.4583333333333  11.9270833333333 11.6354166666667  11.78125 11.78125  C 11.6354166666667 11.9270833333333  11.4583333333333 12  11.25 12  L 0.75 12  C 0.541666666666667 12  0.364583333333333 11.9270833333333  0.21875 11.78125  C 0.0729166666666667 11.6354166666667  0 11.4583333333333  0 11.25  L 0 0.75  C 0 0.541666666666666  0.0729166666666667 0.364583333333332  0.21875 0.21875  C 0.364583333333333 0.0729166666666661  0.541666666666667 0  0.75 0  L 8 0  C 8.20833333333333 0  8.4375 0.0520833333333321  8.6875 0.15625  C 8.9375 0.260416666666666  9.13541666666667 0.385416666666666  9.28125 0.53125  L 11.46875 2.71875  C 11.6145833333333 2.86458333333333  11.7395833333333 3.0625  11.84375 3.3125  Z " fill-rule="nonzero" fill="#ffffff" stroke="none" transform="matrix(1 0 0 1 750 57 )" />
  </g>
</svg>