<?xml version="1.0" encoding="utf-8"?>
<svg version="1.1" xmlns:xlink="http://www.w3.org/1999/xlink" width="16px" height="16px" viewBox="66 181  16 16" xmlns="http://www.w3.org/2000/svg">
  <path d="M 74 181  C 78.48 181  82 184.52  82 189  C 82 193.48  78.48 197  74 197  C 69.52 197  66 193.48  66 189  C 66 184.52  69.52 181  74 181  Z " fill-rule="nonzero" fill="#f0f0f0" stroke="none" />
  <path d="M 74 181.5  C 78.2 181.5  81.5 184.8  81.5 189  C 81.5 193.2  78.2 196.5  74 196.5  C 69.8 196.5  66.5 193.2  66.5 189  C 66.5 184.8  69.8 181.5  74 181.5  Z " stroke-width="1" stroke="#797979" fill="none" />
  <path d="M 74 193  C 71.76 193  70 191.24  70 189  C 70 186.76  71.76 185  74 185  C 76.24 185  78 186.76  78 189  C 78 191.24  76.24 193  74 193  " fill-rule="nonzero" fill="#797979" stroke="none" />
</svg>