<?xml version="1.0" encoding="utf-8"?>
<svg version="1.1" xmlns:xlink="http://www.w3.org/1999/xlink" width="16px" height="16px" viewBox="66 229  16 16" xmlns="http://www.w3.org/2000/svg">
  <path d="M 74 229  C 78.48 229  82 232.52  82 237  C 82 241.48  78.48 245  74 245  C 69.52 245  66 241.48  66 237  C 66 232.52  69.52 229  74 229  Z " fill-rule="nonzero" fill="#f0f0f0" stroke="none" />
  <path d="M 74 229.5  C 78.2 229.5  81.5 232.8  81.5 237  C 81.5 241.2  78.2 244.5  74 244.5  C 69.8 244.5  66.5 241.2  66.5 237  C 66.5 232.8  69.8 229.5  74 229.5  Z " stroke-width="1" stroke="#797979" fill="none" />
  <path d="M 74 241  C 71.76 241  70 239.24  70 237  C 70 234.76  71.76 233  74 233  C 76.24 233  78 234.76  78 237  C 78 239.24  76.24 241  74 241  " fill-rule="nonzero" fill="#797979" stroke="none" />
</svg>