<?xml version="1.0" encoding="utf-8"?>
<svg version="1.1" xmlns:xlink="http://www.w3.org/1999/xlink" width="16px" height="16px" viewBox="330 165  16 16" xmlns="http://www.w3.org/2000/svg">
  <path d="M 338 165  C 342.48 165  346 168.52  346 173  C 346 177.48  342.48 181  338 181  C 333.52 181  330 177.48  330 173  C 330 168.52  333.52 165  338 165  Z " fill-rule="nonzero" fill="#ffffff" stroke="none" />
  <path d="M 338 165.5  C 342.2 165.5  345.5 168.8  345.5 173  C 345.5 177.2  342.2 180.5  338 180.5  C 333.8 180.5  330.5 177.2  330.5 173  C 330.5 168.8  333.8 165.5  338 165.5  Z " stroke-width="1" stroke="#797979" fill="none" />
  <path d="M 338 177  C 335.76 177  334 175.24  334 173  C 334 170.76  335.76 169  338 169  C 340.24 169  342 170.76  342 173  C 342 175.24  340.24 177  338 177  " fill-rule="nonzero" fill="#797979" stroke="none" />
</svg>