<?xml version="1.0" encoding="utf-8"?>
<svg version="1.1" xmlns:xlink="http://www.w3.org/1999/xlink" width="16px" height="16px" viewBox="330 85  16 16" xmlns="http://www.w3.org/2000/svg">
  <path d="M 338 85  C 342.48 85  346 88.52  346 93  C 346 97.48  342.48 101  338 101  C 333.52 101  330 97.48  330 93  C 330 88.52  333.52 85  338 85  Z " fill-rule="nonzero" fill="#f0f0f0" stroke="none" />
  <path d="M 338 85.5  C 342.2 85.5  345.5 88.8  345.5 93  C 345.5 97.2  342.2 100.5  338 100.5  C 333.8 100.5  330.5 97.2  330.5 93  C 330.5 88.8  333.8 85.5  338 85.5  Z " stroke-width="1" stroke="#797979" fill="none" />
  <path d="M 338 97  C 335.76 97  334 95.24  334 93  C 334 90.76  335.76 89  338 89  C 340.24 89  342 90.76  342 93  C 342 95.24  340.24 97  338 97  " fill-rule="nonzero" fill="#797979" stroke="none" />
</svg>