<?xml version="1.0" encoding="utf-8"?>
<svg version="1.1" xmlns:xlink="http://www.w3.org/1999/xlink" width="16px" height="16px" viewBox="66 85  16 16" xmlns="http://www.w3.org/2000/svg">
  <path d="M 74 85  C 78.48 85  82 88.52  82 93  C 82 97.48  78.48 101  74 101  C 69.52 101  66 97.48  66 93  C 66 88.52  69.52 85  74 85  Z " fill-rule="nonzero" fill="#f0f0f0" stroke="none" />
  <path d="M 74 85.5  C 78.2 85.5  81.5 88.8  81.5 93  C 81.5 97.2  78.2 100.5  74 100.5  C 69.8 100.5  66.5 97.2  66.5 93  C 66.5 88.8  69.8 85.5  74 85.5  Z " stroke-width="1" stroke="#797979" fill="none" />
  <path d="M 74 97  C 71.76 97  70 95.24  70 93  C 70 90.76  71.76 89  74 89  C 76.24 89  78 90.76  78 93  C 78 95.24  76.24 97  74 97  " fill-rule="nonzero" fill="#797979" stroke="none" />
</svg>