<?xml version="1.0" encoding="utf-8"?>
<svg version="1.1" xmlns:xlink="http://www.w3.org/1999/xlink" width="16px" height="16px" viewBox="330 117  16 16" xmlns="http://www.w3.org/2000/svg">
  <path d="M 338 117  C 342.48 117  346 120.52  346 125  C 346 129.48  342.48 133  338 133  C 333.52 133  330 129.48  330 125  C 330 120.52  333.52 117  338 117  Z " fill-rule="nonzero" fill="#f0f0f0" stroke="none" />
  <path d="M 338 117.5  C 342.2 117.5  345.5 120.8  345.5 125  C 345.5 129.2  342.2 132.5  338 132.5  C 333.8 132.5  330.5 129.2  330.5 125  C 330.5 120.8  333.8 117.5  338 117.5  Z " stroke-width="1" stroke="#797979" fill="none" />
  <path d="M 338 129  C 335.76 129  334 127.24  334 125  C 334 122.76  335.76 121  338 121  C 340.24 121  342 122.76  342 125  C 342 127.24  340.24 129  338 129  " fill-rule="nonzero" fill="#797979" stroke="none" />
</svg>