<?xml version="1.0" encoding="utf-8"?>
<svg version="1.1" xmlns:xlink="http://www.w3.org/1999/xlink" width="14px" height="14px" viewBox="350 201.5  14 14" xmlns="http://www.w3.org/2000/svg">
  <path d="M 357 201.5  C 360.92 201.5  364 204.58  364 208.5  C 364 212.42  360.92 215.5  357 215.5  C 353.08 215.5  350 212.42  350 208.5  C 350 204.58  353.08 201.5  357 201.5  Z " fill-rule="nonzero" fill="#ffffff" stroke="none" />
  <path d="M 357 202  C 360.64 202  363.5 204.86  363.5 208.5  C 363.5 212.14  360.64 215  357 215  C 353.36 215  350.5 212.14  350.5 208.5  C 350.5 204.86  353.36 202  357 202  Z " stroke-width="1" stroke="#797979" fill="none" />
  <path d="M 357 212  C 355.04 212  353.5 210.46  353.5 208.5  C 353.5 206.54  355.04 205  357 205  C 358.96 205  360.5 206.54  360.5 208.5  C 360.5 210.46  358.96 212  357 212  " fill-rule="nonzero" fill="#797979" stroke="none" />
</svg>