<?xml version="1.0" encoding="utf-8"?>
<svg version="1.1" xmlns:xlink="http://www.w3.org/1999/xlink" width="16px" height="16px" viewBox="0 149  16 16" xmlns="http://www.w3.org/2000/svg">
  <path d="M 8 149  C 12.48 149  16 152.52  16 157  C 16 161.48  12.48 165  8 165  C 3.52 165  0 161.48  0 157  C 0 152.52  3.52 149  8 149  Z " fill-rule="nonzero" fill="#ffffff" stroke="none" />
  <path d="M 8 149.5  C 12.2 149.5  15.5 152.8  15.5 157  C 15.5 161.2  12.2 164.5  8 164.5  C 3.8 164.5  0.5 161.2  0.5 157  C 0.5 152.8  3.8 149.5  8 149.5  Z " stroke-width="1" stroke="#797979" fill="none" />
  <path d="M 8 161  C 5.76 161  4 159.24  4 157  C 4 154.76  5.76 153  8 153  C 10.24 153  12 154.76  12 157  C 12 159.24  10.24 161  8 161  " fill-rule="nonzero" fill="#797979" stroke="none" />
</svg>