<?xml version="1.0" encoding="utf-8"?>
<svg version="1.1" xmlns:xlink="http://www.w3.org/1999/xlink" width="14px" height="14px" viewBox="350 232.5  14 14" xmlns="http://www.w3.org/2000/svg">
  <path d="M 357 232.5  C 360.92 232.5  364 235.58  364 239.5  C 364 243.42  360.92 246.5  357 246.5  C 353.08 246.5  350 243.42  350 239.5  C 350 235.58  353.08 232.5  357 232.5  Z " fill-rule="nonzero" fill="#f0f0f0" stroke="none" />
  <path d="M 357 233  C 360.64 233  363.5 235.86  363.5 239.5  C 363.5 243.14  360.64 246  357 246  C 353.36 246  350.5 243.14  350.5 239.5  C 350.5 235.86  353.36 233  357 233  Z " stroke-width="1" stroke="#797979" fill="none" />
  <path d="M 357 243  C 355.04 243  353.5 241.46  353.5 239.5  C 353.5 237.54  355.04 236  357 236  C 358.96 236  360.5 237.54  360.5 239.5  C 360.5 241.46  358.96 243  357 243  " fill-rule="nonzero" fill="#797979" stroke="none" />
</svg>