<?xml version="1.0" encoding="utf-8"?>
<svg version="1.1" xmlns:xlink="http://www.w3.org/1999/xlink" width="16px" height="16px" viewBox="198 298  16 16" xmlns="http://www.w3.org/2000/svg">
  <path d="M 206 298  C 210.48 298  214 301.52  214 306  C 214 310.48  210.48 314  206 314  C 201.52 314  198 310.48  198 306  C 198 301.52  201.52 298  206 298  Z " fill-rule="nonzero" fill="#f0f0f0" stroke="none" />
  <path d="M 206 298.5  C 210.2 298.5  213.5 301.8  213.5 306  C 213.5 310.2  210.2 313.5  206 313.5  C 201.8 313.5  198.5 310.2  198.5 306  C 198.5 301.8  201.8 298.5  206 298.5  Z " stroke-width="1" stroke="#797979" fill="none" />
  <path d="M 206 310  C 203.76 310  202 308.24  202 306  C 202 303.76  203.76 302  206 302  C 208.24 302  210 303.76  210 306  C 210 308.24  208.24 310  206 310  " fill-rule="nonzero" fill="#797979" stroke="none" />
</svg>