<?xml version="1.0" encoding="utf-8"?>
<svg version="1.1" xmlns:xlink="http://www.w3.org/1999/xlink" width="16px" height="16px" viewBox="217 380  16 16" xmlns="http://www.w3.org/2000/svg">
  <path d="M 225 380  C 229.48 380  233 383.52  233 388  C 233 392.48  229.48 396  225 396  C 220.52 396  217 392.48  217 388  C 217 383.52  220.52 380  225 380  Z " fill-rule="nonzero" fill="#ffffff" stroke="none" />
  <path d="M 225 380.5  C 229.2 380.5  232.5 383.8  232.5 388  C 232.5 392.2  229.2 395.5  225 395.5  C 220.8 395.5  217.5 392.2  217.5 388  C 217.5 383.8  220.8 380.5  225 380.5  Z " stroke-width="1" stroke="#797979" fill="none" />
  <path d="M 225 392  C 222.76 392  221 390.24  221 388  C 221 385.76  222.76 384  225 384  C 227.24 384  229 385.76  229 388  C 229 390.24  227.24 392  225 392  " fill-rule="nonzero" fill="#797979" stroke="none" />
</svg>