<?xml version="1.0" encoding="utf-8"?>
<svg version="1.1" xmlns:xlink="http://www.w3.org/1999/xlink" width="16px" height="16px" viewBox="151 380  16 16" xmlns="http://www.w3.org/2000/svg">
  <path d="M 159 380  C 163.48 380  167 383.52  167 388  C 167 392.48  163.48 396  159 396  C 154.52 396  151 392.48  151 388  C 151 383.52  154.52 380  159 380  Z " fill-rule="nonzero" fill="#f0f0f0" stroke="none" />
  <path d="M 159 380.5  C 163.2 380.5  166.5 383.8  166.5 388  C 166.5 392.2  163.2 395.5  159 395.5  C 154.8 395.5  151.5 392.2  151.5 388  C 151.5 383.8  154.8 380.5  159 380.5  Z " stroke-width="1" stroke="#797979" fill="none" />
  <path d="M 159 392  C 156.76 392  155 390.24  155 388  C 155 385.76  156.76 384  159 384  C 161.24 384  163 385.76  163 388  C 163 390.24  161.24 392  159 392  " fill-rule="nonzero" fill="#797979" stroke="none" />
</svg>