<?xml version="1.0" encoding="utf-8"?>
<svg version="1.1" xmlns:xlink="http://www.w3.org/1999/xlink" width="16px" height="16px" viewBox="132 298  16 16" xmlns="http://www.w3.org/2000/svg">
  <path d="M 140 298  C 144.48 298  148 301.52  148 306  C 148 310.48  144.48 314  140 314  C 135.52 314  132 310.48  132 306  C 132 301.52  135.52 298  140 298  Z " fill-rule="nonzero" fill="#f0f0f0" stroke="none" />
  <path d="M 140 298.5  C 144.2 298.5  147.5 301.8  147.5 306  C 147.5 310.2  144.2 313.5  140 313.5  C 135.8 313.5  132.5 310.2  132.5 306  C 132.5 301.8  135.8 298.5  140 298.5  Z " stroke-width="1" stroke="#797979" fill="none" />
  <path d="M 140 310  C 137.76 310  136 308.24  136 306  C 136 303.76  137.76 302  140 302  C 142.24 302  144 303.76  144 306  C 144 308.24  142.24 310  140 310  " fill-rule="nonzero" fill="#797979" stroke="none" />
</svg>