<?xml version="1.0" encoding="utf-8"?>
<svg version="1.1" xmlns:xlink="http://www.w3.org/1999/xlink" width="14px" height="14px" viewBox="284 232.5  14 14" xmlns="http://www.w3.org/2000/svg">
  <path d="M 291 232.5  C 294.92 232.5  298 235.58  298 239.5  C 298 243.42  294.92 246.5  291 246.5  C 287.08 246.5  284 243.42  284 239.5  C 284 235.58  287.08 232.5  291 232.5  Z " fill-rule="nonzero" fill="#f0f0f0" stroke="none" />
  <path d="M 291 233  C 294.64 233  297.5 235.86  297.5 239.5  C 297.5 243.14  294.64 246  291 246  C 287.36 246  284.5 243.14  284.5 239.5  C 284.5 235.86  287.36 233  291 233  Z " stroke-width="1" stroke="#797979" fill="none" />
  <path d="M 291 243  C 289.04 243  287.5 241.46  287.5 239.5  C 287.5 237.54  289.04 236  291 236  C 292.96 236  294.5 237.54  294.5 239.5  C 294.5 241.46  292.96 243  291 243  " fill-rule="nonzero" fill="#797979" stroke="none" />
</svg>