<?xml version="1.0" encoding="utf-8"?>
<svg version="1.1" xmlns:xlink="http://www.w3.org/1999/xlink" width="16px" height="16px" viewBox="330 298  16 16" xmlns="http://www.w3.org/2000/svg">
  <path d="M 338 298  C 342.48 298  346 301.52  346 306  C 346 310.48  342.48 314  338 314  C 333.52 314  330 310.48  330 306  C 330 301.52  333.52 298  338 298  Z " fill-rule="nonzero" fill="#ffffff" stroke="none" />
  <path d="M 338 298.5  C 342.2 298.5  345.5 301.8  345.5 306  C 345.5 310.2  342.2 313.5  338 313.5  C 333.8 313.5  330.5 310.2  330.5 306  C 330.5 301.8  333.8 298.5  338 298.5  Z " stroke-width="1" stroke="#797979" fill="none" />
  <path d="M 338 310  C 335.76 310  334 308.24  334 306  C 334 303.76  335.76 302  338 302  C 340.24 302  342 303.76  342 306  C 342 308.24  340.24 310  338 310  " fill-rule="nonzero" fill="#797979" stroke="none" />
</svg>