<?xml version="1.0" encoding="utf-8"?>
<svg version="1.1" xmlns:xlink="http://www.w3.org/1999/xlink" width="14px" height="14px" viewBox="482 232.5  14 14" xmlns="http://www.w3.org/2000/svg">
  <path d="M 489 232.5  C 492.92 232.5  496 235.58  496 239.5  C 496 243.42  492.92 246.5  489 246.5  C 485.08 246.5  482 243.42  482 239.5  C 482 235.58  485.08 232.5  489 232.5  Z " fill-rule="nonzero" fill="#f0f0f0" stroke="none" />
  <path d="M 489 233  C 492.64 233  495.5 235.86  495.5 239.5  C 495.5 243.14  492.64 246  489 246  C 485.36 246  482.5 243.14  482.5 239.5  C 482.5 235.86  485.36 233  489 233  Z " stroke-width="1" stroke="#797979" fill="none" />
  <path d="M 489 243  C 487.04 243  485.5 241.46  485.5 239.5  C 485.5 237.54  487.04 236  489 236  C 490.96 236  492.5 237.54  492.5 239.5  C 492.5 241.46  490.96 243  489 243  " fill-rule="nonzero" fill="#797979" stroke="none" />
</svg>