<?xml version="1.0" encoding="utf-8"?>
<svg version="1.1" xmlns:xlink="http://www.w3.org/1999/xlink" width="16px" height="16px" viewBox="525 991  16 16" xmlns="http://www.w3.org/2000/svg">
  <path d="M 533 991  C 537.48 991  541 994.52  541 999  C 541 1003.48  537.48 1007  533 1007  C 528.52 1007  525 1003.48  525 999  C 525 994.52  528.52 991  533 991  Z " fill-rule="nonzero" fill="#f0f0f0" stroke="none" />
  <path d="M 533 991.5  C 537.2 991.5  540.5 994.8  540.5 999  C 540.5 1003.2  537.2 1006.5  533 1006.5  C 528.8 1006.5  525.5 1003.2  525.5 999  C 525.5 994.8  528.8 991.5  533 991.5  Z " stroke-width="1" stroke="#797979" fill="none" />
  <path d="M 533 1003  C 530.76 1003  529 1001.24  529 999  C 529 996.76  530.76 995  533 995  C 535.24 995  537 996.76  537 999  C 537 1001.24  535.24 1003  533 1003  " fill-rule="nonzero" fill="#797979" stroke="none" />
</svg>