<?xml version="1.0" encoding="utf-8"?>
<svg version="1.1" xmlns:xlink="http://www.w3.org/1999/xlink" width="16px" height="16px" viewBox="328 991  16 16" xmlns="http://www.w3.org/2000/svg">
  <path d="M 336 991  C 340.48 991  344 994.52  344 999  C 344 1003.48  340.48 1007  336 1007  C 331.52 1007  328 1003.48  328 999  C 328 994.52  331.52 991  336 991  Z " fill-rule="nonzero" fill="#ffffff" stroke="none" />
  <path d="M 336 991.5  C 340.2 991.5  343.5 994.8  343.5 999  C 343.5 1003.2  340.2 1006.5  336 1006.5  C 331.8 1006.5  328.5 1003.2  328.5 999  C 328.5 994.8  331.8 991.5  336 991.5  Z " stroke-width="1" stroke="#797979" fill="none" />
  <path d="M 336 1003  C 333.76 1003  332 1001.24  332 999  C 332 996.76  333.76 995  336 995  C 338.24 995  340 996.76  340 999  C 340 1001.24  338.24 1003  336 1003  " fill-rule="nonzero" fill="#797979" stroke="none" />
</svg>