<?xml version="1.0" encoding="utf-8"?>
<svg version="1.1" xmlns:xlink="http://www.w3.org/1999/xlink" width="16px" height="16px" viewBox="460 991  16 16" xmlns="http://www.w3.org/2000/svg">
  <path d="M 468 991  C 472.48 991  476 994.52  476 999  C 476 1003.48  472.48 1007  468 1007  C 463.52 1007  460 1003.48  460 999  C 460 994.52  463.52 991  468 991  Z " fill-rule="nonzero" fill="#f0f0f0" stroke="none" />
  <path d="M 468 991.5  C 472.2 991.5  475.5 994.8  475.5 999  C 475.5 1003.2  472.2 1006.5  468 1006.5  C 463.8 1006.5  460.5 1003.2  460.5 999  C 460.5 994.8  463.8 991.5  468 991.5  Z " stroke-width="1" stroke="#797979" fill="none" />
  <path d="M 468 1003  C 465.76 1003  464 1001.24  464 999  C 464 996.76  465.76 995  468 995  C 470.24 995  472 996.76  472 999  C 472 1001.24  470.24 1003  468 1003  " fill-rule="nonzero" fill="#797979" stroke="none" />
</svg>