<?xml version="1.0" encoding="utf-8"?>
<svg version="1.1" xmlns:xlink="http://www.w3.org/1999/xlink" width="16px" height="16px" viewBox="592 991  16 16" xmlns="http://www.w3.org/2000/svg">
  <path d="M 600 991  C 604.48 991  608 994.52  608 999  C 608 1003.48  604.48 1007  600 1007  C 595.52 1007  592 1003.48  592 999  C 592 994.52  595.52 991  600 991  Z " fill-rule="nonzero" fill="#f0f0f0" stroke="none" />
  <path d="M 600 991.5  C 604.2 991.5  607.5 994.8  607.5 999  C 607.5 1003.2  604.2 1006.5  600 1006.5  C 595.8 1006.5  592.5 1003.2  592.5 999  C 592.5 994.8  595.8 991.5  600 991.5  Z " stroke-width="1" stroke="#797979" fill="none" />
  <path d="M 600 1003  C 597.76 1003  596 1001.24  596 999  C 596 996.76  597.76 995  600 995  C 602.24 995  604 996.76  604 999  C 604 1001.24  602.24 1003  600 1003  " fill-rule="nonzero" fill="#797979" stroke="none" />
</svg>