<?xml version="1.0" encoding="utf-8"?>
<svg version="1.1" xmlns:xlink="http://www.w3.org/1999/xlink" width="16px" height="16px" viewBox="394 991  16 16" xmlns="http://www.w3.org/2000/svg">
  <path d="M 402 991  C 406.48 991  410 994.52  410 999  C 410 1003.48  406.48 1007  402 1007  C 397.52 1007  394 1003.48  394 999  C 394 994.52  397.52 991  402 991  Z " fill-rule="nonzero" fill="#ffffff" stroke="none" />
  <path d="M 402 991.5  C 406.2 991.5  409.5 994.8  409.5 999  C 409.5 1003.2  406.2 1006.5  402 1006.5  C 397.8 1006.5  394.5 1003.2  394.5 999  C 394.5 994.8  397.8 991.5  402 991.5  Z " stroke-width="1" stroke="#797979" fill="none" />
  <path d="M 402 1003  C 399.76 1003  398 1001.24  398 999  C 398 996.76  399.76 995  402 995  C 404.24 995  406 996.76  406 999  C 406 1001.24  404.24 1003  402 1003  " fill-rule="nonzero" fill="#797979" stroke="none" />
</svg>