<?xml version="1.0" encoding="utf-8"?>
<svg version="1.1" xmlns:xlink="http://www.w3.org/1999/xlink" width="16px" height="16px" viewBox="262 1055  16 16" xmlns="http://www.w3.org/2000/svg">
  <path d="M 270 1055  C 274.48 1055  278 1058.52  278 1063  C 278 1067.48  274.48 1071  270 1071  C 265.52 1071  262 1067.48  262 1063  C 262 1058.52  265.52 1055  270 1055  Z " fill-rule="nonzero" fill="#ffffff" stroke="none" />
  <path d="M 270 1055.5  C 274.2 1055.5  277.5 1058.8  277.5 1063  C 277.5 1067.2  274.2 1070.5  270 1070.5  C 265.8 1070.5  262.5 1067.2  262.5 1063  C 262.5 1058.8  265.8 1055.5  270 1055.5  Z " stroke-width="1" stroke="#797979" fill="none" />
  <path d="M 270 1067  C 267.76 1067  266 1065.24  266 1063  C 266 1060.76  267.76 1059  270 1059  C 272.24 1059  274 1060.76  274 1063  C 274 1065.24  272.24 1067  270 1067  " fill-rule="nonzero" fill="#797979" stroke="none" />
</svg>