<?xml version="1.0" encoding="utf-8"?>
<svg version="1.1" xmlns:xlink="http://www.w3.org/1999/xlink" width="16px" height="16px" viewBox="394 1055  16 16" xmlns="http://www.w3.org/2000/svg">
  <path d="M 402 1055  C 406.48 1055  410 1058.52  410 1063  C 410 1067.48  406.48 1071  402 1071  C 397.52 1071  394 1067.48  394 1063  C 394 1058.52  397.52 1055  402 1055  Z " fill-rule="nonzero" fill="#f0f0f0" stroke="none" />
  <path d="M 402 1055.5  C 406.2 1055.5  409.5 1058.8  409.5 1063  C 409.5 1067.2  406.2 1070.5  402 1070.5  C 397.8 1070.5  394.5 1067.2  394.5 1063  C 394.5 1058.8  397.8 1055.5  402 1055.5  Z " stroke-width="1" stroke="#797979" fill="none" />
  <path d="M 402 1067  C 399.76 1067  398 1065.24  398 1063  C 398 1060.76  399.76 1059  402 1059  C 404.24 1059  406 1060.76  406 1063  C 406 1065.24  404.24 1067  402 1067  " fill-rule="nonzero" fill="#797979" stroke="none" />
</svg>