<?xml version="1.0" encoding="utf-8"?>
<svg version="1.1" xmlns:xlink="http://www.w3.org/1999/xlink" width="16px" height="16px" viewBox="460 1055  16 16" xmlns="http://www.w3.org/2000/svg">
  <path d="M 468 1055  C 472.48 1055  476 1058.52  476 1063  C 476 1067.48  472.48 1071  468 1071  C 463.52 1071  460 1067.48  460 1063  C 460 1058.52  463.52 1055  468 1055  Z " fill-rule="nonzero" fill="#ffffff" stroke="none" />
  <path d="M 468 1055.5  C 472.2 1055.5  475.5 1058.8  475.5 1063  C 475.5 1067.2  472.2 1070.5  468 1070.5  C 463.8 1070.5  460.5 1067.2  460.5 1063  C 460.5 1058.8  463.8 1055.5  468 1055.5  Z " stroke-width="1" stroke="#797979" fill="none" />
  <path d="M 468 1067  C 465.76 1067  464 1065.24  464 1063  C 464 1060.76  465.76 1059  468 1059  C 470.24 1059  472 1060.76  472 1063  C 472 1065.24  470.24 1067  468 1067  " fill-rule="nonzero" fill="#797979" stroke="none" />
</svg>