<?xml version="1.0" encoding="utf-8"?>
<svg version="1.1" xmlns:xlink="http://www.w3.org/1999/xlink" width="16px" height="16px" viewBox="262 1023  16 16" xmlns="http://www.w3.org/2000/svg">
  <path d="M 270 1023  C 274.48 1023  278 1026.52  278 1031  C 278 1035.48  274.48 1039  270 1039  C 265.52 1039  262 1035.48  262 1031  C 262 1026.52  265.52 1023  270 1023  Z " fill-rule="nonzero" fill="#f0f0f0" stroke="none" />
  <path d="M 270 1023.5  C 274.2 1023.5  277.5 1026.8  277.5 1031  C 277.5 1035.2  274.2 1038.5  270 1038.5  C 265.8 1038.5  262.5 1035.2  262.5 1031  C 262.5 1026.8  265.8 1023.5  270 1023.5  Z " stroke-width="1" stroke="#797979" fill="none" />
  <path d="M 270 1035  C 267.76 1035  266 1033.24  266 1031  C 266 1028.76  267.76 1027  270 1027  C 272.24 1027  274 1028.76  274 1031  C 274 1033.24  272.24 1035  270 1035  " fill-rule="nonzero" fill="#797979" stroke="none" />
</svg>