<?xml version="1.0" encoding="utf-8"?>
<svg version="1.1" xmlns:xlink="http://www.w3.org/1999/xlink" width="16px" height="16px" viewBox="525 1055  16 16" xmlns="http://www.w3.org/2000/svg">
  <path d="M 533 1055  C 537.48 1055  541 1058.52  541 1063  C 541 1067.48  537.48 1071  533 1071  C 528.52 1071  525 1067.48  525 1063  C 525 1058.52  528.52 1055  533 1055  Z " fill-rule="nonzero" fill="#f0f0f0" stroke="none" />
  <path d="M 533 1055.5  C 537.2 1055.5  540.5 1058.8  540.5 1063  C 540.5 1067.2  537.2 1070.5  533 1070.5  C 528.8 1070.5  525.5 1067.2  525.5 1063  C 525.5 1058.8  528.8 1055.5  533 1055.5  Z " stroke-width="1" stroke="#797979" fill="none" />
  <path d="M 533 1067  C 530.76 1067  529 1065.24  529 1063  C 529 1060.76  530.76 1059  533 1059  C 535.24 1059  537 1060.76  537 1063  C 537 1065.24  535.24 1067  533 1067  " fill-rule="nonzero" fill="#797979" stroke="none" />
</svg>