<?xml version="1.0" encoding="utf-8"?>
<svg version="1.1" xmlns:xlink="http://www.w3.org/1999/xlink" width="16px" height="16px" viewBox="66 199  16 16" xmlns="http://www.w3.org/2000/svg">
  <path d="M 74 199  C 78.48 199  82 202.52  82 207  C 82 211.48  78.48 215  74 215  C 69.52 215  66 211.48  66 207  C 66 202.52  69.52 199  74 199  Z " fill-rule="nonzero" fill="#ffffff" stroke="none" />
  <path d="M 74 199.5  C 78.2 199.5  81.5 202.8  81.5 207  C 81.5 211.2  78.2 214.5  74 214.5  C 69.8 214.5  66.5 211.2  66.5 207  C 66.5 202.8  69.8 199.5  74 199.5  Z " stroke-width="1" stroke="#797979" fill="none" />
  <path d="M 74 211  C 71.76 211  70 209.24  70 207  C 70 204.76  71.76 203  74 203  C 76.24 203  78 204.76  78 207  C 78 209.24  76.24 211  74 211  " fill-rule="nonzero" fill="#797979" stroke="none" />
</svg>