<?xml version="1.0" encoding="utf-8"?>
<svg version="1.1" xmlns:xlink="http://www.w3.org/1999/xlink" width="16px" height="16px" viewBox="328 1023  16 16" xmlns="http://www.w3.org/2000/svg">
  <path d="M 336 1023  C 340.48 1023  344 1026.52  344 1031  C 344 1035.48  340.48 1039  336 1039  C 331.52 1039  328 1035.48  328 1031  C 328 1026.52  331.52 1023  336 1023  Z " fill-rule="nonzero" fill="#f0f0f0" stroke="none" />
  <path d="M 336 1023.5  C 340.2 1023.5  343.5 1026.8  343.5 1031  C 343.5 1035.2  340.2 1038.5  336 1038.5  C 331.8 1038.5  328.5 1035.2  328.5 1031  C 328.5 1026.8  331.8 1023.5  336 1023.5  Z " stroke-width="1" stroke="#797979" fill="none" />
  <path d="M 336 1035  C 333.76 1035  332 1033.24  332 1031  C 332 1028.76  333.76 1027  336 1027  C 338.24 1027  340 1028.76  340 1031  C 340 1033.24  338.24 1035  336 1035  " fill-rule="nonzero" fill="#797979" stroke="none" />
</svg>