<?xml version="1.0" encoding="utf-8"?>
<svg version="1.1" xmlns:xlink="http://www.w3.org/1999/xlink" width="16px" height="16px" viewBox="262 1087  16 16" xmlns="http://www.w3.org/2000/svg">
  <path d="M 270 1087  C 274.48 1087  278 1090.52  278 1095  C 278 1099.48  274.48 1103  270 1103  C 265.52 1103  262 1099.48  262 1095  C 262 1090.52  265.52 1087  270 1087  Z " fill-rule="nonzero" fill="#f0f0f0" stroke="none" />
  <path d="M 270 1087.5  C 274.2 1087.5  277.5 1090.8  277.5 1095  C 277.5 1099.2  274.2 1102.5  270 1102.5  C 265.8 1102.5  262.5 1099.2  262.5 1095  C 262.5 1090.8  265.8 1087.5  270 1087.5  Z " stroke-width="1" stroke="#797979" fill="none" />
  <path d="M 270 1099  C 267.76 1099  266 1097.24  266 1095  C 266 1092.76  267.76 1091  270 1091  C 272.24 1091  274 1092.76  274 1095  C 274 1097.24  272.24 1099  270 1099  " fill-rule="nonzero" fill="#797979" stroke="none" />
</svg>