<?xml version="1.0" encoding="utf-8"?>
<svg version="1.1" xmlns:xlink="http://www.w3.org/1999/xlink" width="16px" height="16px" viewBox="592 1023  16 16" xmlns="http://www.w3.org/2000/svg">
  <path d="M 600 1023  C 604.48 1023  608 1026.52  608 1031  C 608 1035.48  604.48 1039  600 1039  C 595.52 1039  592 1035.48  592 1031  C 592 1026.52  595.52 1023  600 1023  Z " fill-rule="nonzero" fill="#ffffff" stroke="none" />
  <path d="M 600 1023.5  C 604.2 1023.5  607.5 1026.8  607.5 1031  C 607.5 1035.2  604.2 1038.5  600 1038.5  C 595.8 1038.5  592.5 1035.2  592.5 1031  C 592.5 1026.8  595.8 1023.5  600 1023.5  Z " stroke-width="1" stroke="#797979" fill="none" />
  <path d="M 600 1035  C 597.76 1035  596 1033.24  596 1031  C 596 1028.76  597.76 1027  600 1027  C 602.24 1027  604 1028.76  604 1031  C 604 1033.24  602.24 1035  600 1035  " fill-rule="nonzero" fill="#797979" stroke="none" />
</svg>