<?xml version="1.0" encoding="utf-8"?>
<svg version="1.1" xmlns:xlink="http://www.w3.org/1999/xlink" width="16px" height="16px" viewBox="592 1055  16 16" xmlns="http://www.w3.org/2000/svg">
  <path d="M 600 1055  C 604.48 1055  608 1058.52  608 1063  C 608 1067.48  604.48 1071  600 1071  C 595.52 1071  592 1067.48  592 1063  C 592 1058.52  595.52 1055  600 1055  Z " fill-rule="nonzero" fill="#ffffff" stroke="none" />
  <path d="M 600 1055.5  C 604.2 1055.5  607.5 1058.8  607.5 1063  C 607.5 1067.2  604.2 1070.5  600 1070.5  C 595.8 1070.5  592.5 1067.2  592.5 1063  C 592.5 1058.8  595.8 1055.5  600 1055.5  Z " stroke-width="1" stroke="#797979" fill="none" />
  <path d="M 600 1067  C 597.76 1067  596 1065.24  596 1063  C 596 1060.76  597.76 1059  600 1059  C 602.24 1059  604 1060.76  604 1063  C 604 1065.24  602.24 1067  600 1067  " fill-rule="nonzero" fill="#797979" stroke="none" />
</svg>