<?xml version="1.0" encoding="utf-8"?>
<svg version="1.1" xmlns:xlink="http://www.w3.org/1999/xlink" width="16px" height="16px" viewBox="592 1124  16 16" xmlns="http://www.w3.org/2000/svg">
  <path d="M 600 1124  C 604.48 1124  608 1127.52  608 1132  C 608 1136.48  604.48 1140  600 1140  C 595.52 1140  592 1136.48  592 1132  C 592 1127.52  595.52 1124  600 1124  Z " fill-rule="nonzero" fill="#ffffff" stroke="none" />
  <path d="M 600 1124.5  C 604.2 1124.5  607.5 1127.8  607.5 1132  C 607.5 1136.2  604.2 1139.5  600 1139.5  C 595.8 1139.5  592.5 1136.2  592.5 1132  C 592.5 1127.8  595.8 1124.5  600 1124.5  Z " stroke-width="1" stroke="#797979" fill="none" />
  <path d="M 600 1136  C 597.76 1136  596 1134.24  596 1132  C 596 1129.76  597.76 1128  600 1128  C 602.24 1128  604 1129.76  604 1132  C 604 1134.24  602.24 1136  600 1136  " fill-rule="nonzero" fill="#797979" stroke="none" />
</svg>