<?xml version="1.0" encoding="utf-8"?>
<svg version="1.1" xmlns:xlink="http://www.w3.org/1999/xlink" width="16px" height="16px" viewBox="460 1124  16 16" xmlns="http://www.w3.org/2000/svg">
  <path d="M 468 1124  C 472.48 1124  476 1127.52  476 1132  C 476 1136.48  472.48 1140  468 1140  C 463.52 1140  460 1136.48  460 1132  C 460 1127.52  463.52 1124  468 1124  Z " fill-rule="nonzero" fill="#f0f0f0" stroke="none" />
  <path d="M 468 1124.5  C 472.2 1124.5  475.5 1127.8  475.5 1132  C 475.5 1136.2  472.2 1139.5  468 1139.5  C 463.8 1139.5  460.5 1136.2  460.5 1132  C 460.5 1127.8  463.8 1124.5  468 1124.5  Z " stroke-width="1" stroke="#797979" fill="none" />
  <path d="M 468 1136  C 465.76 1136  464 1134.24  464 1132  C 464 1129.76  465.76 1128  468 1128  C 470.24 1128  472 1129.76  472 1132  C 472 1134.24  470.24 1136  468 1136  " fill-rule="nonzero" fill="#797979" stroke="none" />
</svg>