<?xml version="1.0" encoding="utf-8"?>
<svg version="1.1" xmlns:xlink="http://www.w3.org/1999/xlink" width="16px" height="16px" viewBox="305 935  16 16" xmlns="http://www.w3.org/2000/svg">
  <path d="M 313 935  C 317.48 935  321 938.52  321 943  C 321 947.48  317.48 951  313 951  C 308.52 951  305 947.48  305 943  C 305 938.52  308.52 935  313 935  Z " fill-rule="nonzero" fill="#f0f0f0" stroke="none" />
  <path d="M 313 935.5  C 317.2 935.5  320.5 938.8  320.5 943  C 320.5 947.2  317.2 950.5  313 950.5  C 308.8 950.5  305.5 947.2  305.5 943  C 305.5 938.8  308.8 935.5  313 935.5  Z " stroke-width="1" stroke="#797979" fill="none" />
  <path d="M 313 947  C 310.76 947  309 945.24  309 943  C 309 940.76  310.76 939  313 939  C 315.24 939  317 940.76  317 943  C 317 945.24  315.24 947  313 947  " fill-rule="nonzero" fill="#797979" stroke="none" />
</svg>