<?xml version="1.0" encoding="utf-8"?>
<svg version="1.1" xmlns:xlink="http://www.w3.org/1999/xlink" width="16px" height="16px" viewBox="486 935  16 16" xmlns="http://www.w3.org/2000/svg">
  <path d="M 494 935  C 498.48 935  502 938.52  502 943  C 502 947.48  498.48 951  494 951  C 489.52 951  486 947.48  486 943  C 486 938.52  489.52 935  494 935  Z " fill-rule="nonzero" fill="#f0f0f0" stroke="none" />
  <path d="M 494 935.5  C 498.2 935.5  501.5 938.8  501.5 943  C 501.5 947.2  498.2 950.5  494 950.5  C 489.8 950.5  486.5 947.2  486.5 943  C 486.5 938.8  489.8 935.5  494 935.5  Z " stroke-width="1" stroke="#797979" fill="none" />
  <path d="M 494 947  C 491.76 947  490 945.24  490 943  C 490 940.76  491.76 939  494 939  C 496.24 939  498 940.76  498 943  C 498 945.24  496.24 947  494 947  " fill-rule="nonzero" fill="#797979" stroke="none" />
</svg>