<?xml version="1.0" encoding="utf-8"?>
<svg version="1.1" xmlns:xlink="http://www.w3.org/1999/xlink" width="16px" height="16px" viewBox="547 935  16 16" xmlns="http://www.w3.org/2000/svg">
  <path d="M 555 935  C 559.48 935  563 938.52  563 943  C 563 947.48  559.48 951  555 951  C 550.52 951  547 947.48  547 943  C 547 938.52  550.52 935  555 935  Z " fill-rule="nonzero" fill="#f0f0f0" stroke="none" />
  <path d="M 555 935.5  C 559.2 935.5  562.5 938.8  562.5 943  C 562.5 947.2  559.2 950.5  555 950.5  C 550.8 950.5  547.5 947.2  547.5 943  C 547.5 938.8  550.8 935.5  555 935.5  Z " stroke-width="1" stroke="#797979" fill="none" />
  <path d="M 555 947  C 552.76 947  551 945.24  551 943  C 551 940.76  552.76 939  555 939  C 557.24 939  559 940.76  559 943  C 559 945.24  557.24 947  555 947  " fill-rule="nonzero" fill="#797979" stroke="none" />
</svg>