<?xml version="1.0" encoding="utf-8"?>
<svg version="1.1" xmlns:xlink="http://www.w3.org/1999/xlink" width="16px" height="16px" viewBox="365 1076  16 16" xmlns="http://www.w3.org/2000/svg">
  <path d="M 373 1076  C 377.48 1076  381 1079.52  381 1084  C 381 1088.48  377.48 1092  373 1092  C 368.52 1092  365 1088.48  365 1084  C 365 1079.52  368.52 1076  373 1076  Z " fill-rule="nonzero" fill="#ffffff" stroke="none" />
  <path d="M 373 1076.5  C 377.2 1076.5  380.5 1079.8  380.5 1084  C 380.5 1088.2  377.2 1091.5  373 1091.5  C 368.8 1091.5  365.5 1088.2  365.5 1084  C 365.5 1079.8  368.8 1076.5  373 1076.5  Z " stroke-width="1" stroke="#797979" fill="none" />
  <path d="M 373 1088  C 370.76 1088  369 1086.24  369 1084  C 369 1081.76  370.76 1080  373 1080  C 375.24 1080  377 1081.76  377 1084  C 377 1086.24  375.24 1088  373 1088  " fill-rule="nonzero" fill="#797979" stroke="none" />
</svg>