<?xml version="1.0" encoding="utf-8"?>
<svg version="1.1" xmlns:xlink="http://www.w3.org/1999/xlink" width="16px" height="16px" viewBox="244 967  16 16" xmlns="http://www.w3.org/2000/svg">
  <path d="M 252 967  C 256.48 967  260 970.52  260 975  C 260 979.48  256.48 983  252 983  C 247.52 983  244 979.48  244 975  C 244 970.52  247.52 967  252 967  Z " fill-rule="nonzero" fill="#f0f0f0" stroke="none" />
  <path d="M 252 967.5  C 256.2 967.5  259.5 970.8  259.5 975  C 259.5 979.2  256.2 982.5  252 982.5  C 247.8 982.5  244.5 979.2  244.5 975  C 244.5 970.8  247.8 967.5  252 967.5  Z " stroke-width="1" stroke="#797979" fill="none" />
  <path d="M 252 979  C 249.76 979  248 977.24  248 975  C 248 972.76  249.76 971  252 971  C 254.24 971  256 972.76  256 975  C 256 977.24  254.24 979  252 979  " fill-rule="nonzero" fill="#797979" stroke="none" />
</svg>