<?xml version="1.0" encoding="utf-8"?>
<svg version="1.1" xmlns:xlink="http://www.w3.org/1999/xlink" width="16px" height="16px" viewBox="426 1036  16 16" xmlns="http://www.w3.org/2000/svg">
  <path d="M 434 1036  C 438.48 1036  442 1039.52  442 1044  C 442 1048.48  438.48 1052  434 1052  C 429.52 1052  426 1048.48  426 1044  C 426 1039.52  429.52 1036  434 1036  Z " fill-rule="nonzero" fill="#f0f0f0" stroke="none" />
  <path d="M 434 1036.5  C 438.2 1036.5  441.5 1039.8  441.5 1044  C 441.5 1048.2  438.2 1051.5  434 1051.5  C 429.8 1051.5  426.5 1048.2  426.5 1044  C 426.5 1039.8  429.8 1036.5  434 1036.5  Z " stroke-width="1" stroke="#797979" fill="none" />
  <path d="M 434 1048  C 431.76 1048  430 1046.24  430 1044  C 430 1041.76  431.76 1040  434 1040  C 436.24 1040  438 1041.76  438 1044  C 438 1046.24  436.24 1048  434 1048  " fill-rule="nonzero" fill="#797979" stroke="none" />
</svg>