<?xml version="1.0" encoding="utf-8"?>
<svg version="1.1" xmlns:xlink="http://www.w3.org/1999/xlink" width="16px" height="16px" viewBox="305 999  16 16" xmlns="http://www.w3.org/2000/svg">
  <path d="M 313 999  C 317.48 999  321 1002.52  321 1007  C 321 1011.48  317.48 1015  313 1015  C 308.52 1015  305 1011.48  305 1007  C 305 1002.52  308.52 999  313 999  Z " fill-rule="nonzero" fill="#f0f0f0" stroke="none" />
  <path d="M 313 999.5  C 317.2 999.5  320.5 1002.8  320.5 1007  C 320.5 1011.2  317.2 1014.5  313 1014.5  C 308.8 1014.5  305.5 1011.2  305.5 1007  C 305.5 1002.8  308.8 999.5  313 999.5  Z " stroke-width="1" stroke="#797979" fill="none" />
  <path d="M 313 1011  C 310.76 1011  309 1009.24  309 1007  C 309 1004.76  310.76 1003  313 1003  C 315.24 1003  317 1004.76  317 1007  C 317 1009.24  315.24 1011  313 1011  " fill-rule="nonzero" fill="#797979" stroke="none" />
</svg>