<?xml version="1.0" encoding="utf-8"?>
<svg version="1.1" xmlns:xlink="http://www.w3.org/1999/xlink" width="16px" height="16px" viewBox="365 1036  16 16" xmlns="http://www.w3.org/2000/svg">
  <path d="M 373 1036  C 377.48 1036  381 1039.52  381 1044  C 381 1048.48  377.48 1052  373 1052  C 368.52 1052  365 1048.48  365 1044  C 365 1039.52  368.52 1036  373 1036  Z " fill-rule="nonzero" fill="#f0f0f0" stroke="none" />
  <path d="M 373 1036.5  C 377.2 1036.5  380.5 1039.8  380.5 1044  C 380.5 1048.2  377.2 1051.5  373 1051.5  C 368.8 1051.5  365.5 1048.2  365.5 1044  C 365.5 1039.8  368.8 1036.5  373 1036.5  Z " stroke-width="1" stroke="#797979" fill="none" />
  <path d="M 373 1048  C 370.76 1048  369 1046.24  369 1044  C 369 1041.76  370.76 1040  373 1040  C 375.24 1040  377 1041.76  377 1044  C 377 1046.24  375.24 1048  373 1048  " fill-rule="nonzero" fill="#797979" stroke="none" />
</svg>