<?xml version="1.0" encoding="utf-8"?>
<svg version="1.1" xmlns:xlink="http://www.w3.org/1999/xlink" width="16px" height="16px" viewBox="426 999  16 16" xmlns="http://www.w3.org/2000/svg">
  <path d="M 434 999  C 438.48 999  442 1002.52  442 1007  C 442 1011.48  438.48 1015  434 1015  C 429.52 1015  426 1011.48  426 1007  C 426 1002.52  429.52 999  434 999  Z " fill-rule="nonzero" fill="#ffffff" stroke="none" />
  <path d="M 434 999.5  C 438.2 999.5  441.5 1002.8  441.5 1007  C 441.5 1011.2  438.2 1014.5  434 1014.5  C 429.8 1014.5  426.5 1011.2  426.5 1007  C 426.5 1002.8  429.8 999.5  434 999.5  Z " stroke-width="1" stroke="#797979" fill="none" />
  <path d="M 434 1011  C 431.76 1011  430 1009.24  430 1007  C 430 1004.76  431.76 1003  434 1003  C 436.24 1003  438 1004.76  438 1007  C 438 1009.24  436.24 1011  434 1011  " fill-rule="nonzero" fill="#797979" stroke="none" />
</svg>