<?xml version="1.0" encoding="utf-8"?>
<svg version="1.1" xmlns:xlink="http://www.w3.org/1999/xlink" width="16px" height="16px" viewBox="486 1076  16 16" xmlns="http://www.w3.org/2000/svg">
  <path d="M 494 1076  C 498.48 1076  502 1079.52  502 1084  C 502 1088.48  498.48 1092  494 1092  C 489.52 1092  486 1088.48  486 1084  C 486 1079.52  489.52 1076  494 1076  Z " fill-rule="nonzero" fill="#f0f0f0" stroke="none" />
  <path d="M 494 1076.5  C 498.2 1076.5  501.5 1079.8  501.5 1084  C 501.5 1088.2  498.2 1091.5  494 1091.5  C 489.8 1091.5  486.5 1088.2  486.5 1084  C 486.5 1079.8  489.8 1076.5  494 1076.5  Z " stroke-width="1" stroke="#797979" fill="none" />
  <path d="M 494 1088  C 491.76 1088  490 1086.24  490 1084  C 490 1081.76  491.76 1080  494 1080  C 496.24 1080  498 1081.76  498 1084  C 498 1086.24  496.24 1088  494 1088  " fill-rule="nonzero" fill="#797979" stroke="none" />
</svg>