<?xml version="1.0" encoding="utf-8"?>
<svg version="1.1" xmlns:xlink="http://www.w3.org/1999/xlink" width="16px" height="16px" viewBox="547 967  16 16" xmlns="http://www.w3.org/2000/svg">
  <path d="M 555 967  C 559.48 967  563 970.52  563 975  C 563 979.48  559.48 983  555 983  C 550.52 983  547 979.48  547 975  C 547 970.52  550.52 967  555 967  Z " fill-rule="nonzero" fill="#f0f0f0" stroke="none" />
  <path d="M 555 967.5  C 559.2 967.5  562.5 970.8  562.5 975  C 562.5 979.2  559.2 982.5  555 982.5  C 550.8 982.5  547.5 979.2  547.5 975  C 547.5 970.8  550.8 967.5  555 967.5  Z " stroke-width="1" stroke="#797979" fill="none" />
  <path d="M 555 979  C 552.76 979  551 977.24  551 975  C 551 972.76  552.76 971  555 971  C 557.24 971  559 972.76  559 975  C 559 977.24  557.24 979  555 979  " fill-rule="nonzero" fill="#797979" stroke="none" />
</svg>