<?xml version="1.0" encoding="utf-8"?>
<svg version="1.1" xmlns:xlink="http://www.w3.org/1999/xlink" width="16px" height="16px" viewBox="365 999  16 16" xmlns="http://www.w3.org/2000/svg">
  <path d="M 373 999  C 377.48 999  381 1002.52  381 1007  C 381 1011.48  377.48 1015  373 1015  C 368.52 1015  365 1011.48  365 1007  C 365 1002.52  368.52 999  373 999  Z " fill-rule="nonzero" fill="#f0f0f0" stroke="none" />
  <path d="M 373 999.5  C 377.2 999.5  380.5 1002.8  380.5 1007  C 380.5 1011.2  377.2 1014.5  373 1014.5  C 368.8 1014.5  365.5 1011.2  365.5 1007  C 365.5 1002.8  368.8 999.5  373 999.5  Z " stroke-width="1" stroke="#797979" fill="none" />
  <path d="M 373 1011  C 370.76 1011  369 1009.24  369 1007  C 369 1004.76  370.76 1003  373 1003  C 375.24 1003  377 1004.76  377 1007  C 377 1009.24  375.24 1011  373 1011  " fill-rule="nonzero" fill="#797979" stroke="none" />
</svg>