<?xml version="1.0" encoding="utf-8"?>
<svg version="1.1" xmlns:xlink="http://www.w3.org/1999/xlink" width="16px" height="16px" viewBox="426 967  16 16" xmlns="http://www.w3.org/2000/svg">
  <path d="M 434 967  C 438.48 967  442 970.52  442 975  C 442 979.48  438.48 983  434 983  C 429.52 983  426 979.48  426 975  C 426 970.52  429.52 967  434 967  Z " fill-rule="nonzero" fill="#f0f0f0" stroke="none" />
  <path d="M 434 967.5  C 438.2 967.5  441.5 970.8  441.5 975  C 441.5 979.2  438.2 982.5  434 982.5  C 429.8 982.5  426.5 979.2  426.5 975  C 426.5 970.8  429.8 967.5  434 967.5  Z " stroke-width="1" stroke="#797979" fill="none" />
  <path d="M 434 979  C 431.76 979  430 977.24  430 975  C 430 972.76  431.76 971  434 971  C 436.24 971  438 972.76  438 975  C 438 977.24  436.24 979  434 979  " fill-rule="nonzero" fill="#797979" stroke="none" />
</svg>