<?xml version="1.0" encoding="utf-8"?>
<svg version="1.1" xmlns:xlink="http://www.w3.org/1999/xlink" width="16px" height="16px" viewBox="547 1076  16 16" xmlns="http://www.w3.org/2000/svg">
  <path d="M 555 1076  C 559.48 1076  563 1079.52  563 1084  C 563 1088.48  559.48 1092  555 1092  C 550.52 1092  547 1088.48  547 1084  C 547 1079.52  550.52 1076  555 1076  Z " fill-rule="nonzero" fill="#ffffff" stroke="none" />
  <path d="M 555 1076.5  C 559.2 1076.5  562.5 1079.8  562.5 1084  C 562.5 1088.2  559.2 1091.5  555 1091.5  C 550.8 1091.5  547.5 1088.2  547.5 1084  C 547.5 1079.8  550.8 1076.5  555 1076.5  Z " stroke-width="1" stroke="#797979" fill="none" />
  <path d="M 555 1088  C 552.76 1088  551 1086.24  551 1084  C 551 1081.76  552.76 1080  555 1080  C 557.24 1080  559 1081.76  559 1084  C 559 1086.24  557.24 1088  555 1088  " fill-rule="nonzero" fill="#797979" stroke="none" />
</svg>