<?xml version="1.0" encoding="utf-8"?>
<svg version="1.1" xmlns:xlink="http://www.w3.org/1999/xlink" width="16px" height="16px" viewBox="486 967  16 16" xmlns="http://www.w3.org/2000/svg">
  <path d="M 494 967  C 498.48 967  502 970.52  502 975  C 502 979.48  498.48 983  494 983  C 489.52 983  486 979.48  486 975  C 486 970.52  489.52 967  494 967  Z " fill-rule="nonzero" fill="#ffffff" stroke="none" />
  <path d="M 494 967.5  C 498.2 967.5  501.5 970.8  501.5 975  C 501.5 979.2  498.2 982.5  494 982.5  C 489.8 982.5  486.5 979.2  486.5 975  C 486.5 970.8  489.8 967.5  494 967.5  Z " stroke-width="1" stroke="#797979" fill="none" />
  <path d="M 494 979  C 491.76 979  490 977.24  490 975  C 490 972.76  491.76 971  494 971  C 496.24 971  498 972.76  498 975  C 498 977.24  496.24 979  494 979  " fill-rule="nonzero" fill="#797979" stroke="none" />
</svg>