<?xml version="1.0" encoding="utf-8"?>
<svg version="1.1" xmlns:xlink="http://www.w3.org/1999/xlink" width="16px" height="16px" viewBox="66 263  16 16" xmlns="http://www.w3.org/2000/svg">
  <path d="M 74 263  C 78.48 263  82 266.52  82 271  C 82 275.48  78.48 279  74 279  C 69.52 279  66 275.48  66 271  C 66 266.52  69.52 263  74 263  Z " fill-rule="nonzero" fill="#f0f0f0" stroke="none" />
  <path d="M 74 263.5  C 78.2 263.5  81.5 266.8  81.5 271  C 81.5 275.2  78.2 278.5  74 278.5  C 69.8 278.5  66.5 275.2  66.5 271  C 66.5 266.8  69.8 263.5  74 263.5  Z " stroke-width="1" stroke="#797979" fill="none" />
  <path d="M 74 275  C 71.76 275  70 273.24  70 271  C 70 268.76  71.76 267  74 267  C 76.24 267  78 268.76  78 271  C 78 273.24  76.24 275  74 275  " fill-rule="nonzero" fill="#797979" stroke="none" />
</svg>