<?xml version="1.0" encoding="utf-8"?>
<svg version="1.1" xmlns:xlink="http://www.w3.org/1999/xlink" width="16px" height="16px" viewBox="460 1102  16 16" xmlns="http://www.w3.org/2000/svg">
  <path d="M 468 1102  C 472.48 1102  476 1105.52  476 1110  C 476 1114.48  472.48 1118  468 1118  C 463.52 1118  460 1114.48  460 1110  C 460 1105.52  463.52 1102  468 1102  Z " fill-rule="nonzero" fill="#ffffff" stroke="none" />
  <path d="M 468 1102.5  C 472.2 1102.5  475.5 1105.8  475.5 1110  C 475.5 1114.2  472.2 1117.5  468 1117.5  C 463.8 1117.5  460.5 1114.2  460.5 1110  C 460.5 1105.8  463.8 1102.5  468 1102.5  Z " stroke-width="1" stroke="#797979" fill="none" />
  <path d="M 468 1114  C 465.76 1114  464 1112.24  464 1110  C 464 1107.76  465.76 1106  468 1106  C 470.24 1106  472 1107.76  472 1110  C 472 1112.24  470.24 1114  468 1114  " fill-rule="nonzero" fill="#797979" stroke="none" />
</svg>