<?xml version="1.0" encoding="utf-8"?>
<svg version="1.1" xmlns:xlink="http://www.w3.org/1999/xlink" width="16px" height="16px" viewBox="394 1102  16 16" xmlns="http://www.w3.org/2000/svg">
  <path d="M 402 1102  C 406.48 1102  410 1105.52  410 1110  C 410 1114.48  406.48 1118  402 1118  C 397.52 1118  394 1114.48  394 1110  C 394 1105.52  397.52 1102  402 1102  Z " fill-rule="nonzero" fill="#ffffff" stroke="none" />
  <path d="M 402 1102.5  C 406.2 1102.5  409.5 1105.8  409.5 1110  C 409.5 1114.2  406.2 1117.5  402 1117.5  C 397.8 1117.5  394.5 1114.2  394.5 1110  C 394.5 1105.8  397.8 1102.5  402 1102.5  Z " stroke-width="1" stroke="#797979" fill="none" />
  <path d="M 402 1114  C 399.76 1114  398 1112.24  398 1110  C 398 1107.76  399.76 1106  402 1106  C 404.24 1106  406 1107.76  406 1110  C 406 1112.24  404.24 1114  402 1114  " fill-rule="nonzero" fill="#797979" stroke="none" />
</svg>