<?xml version="1.0" encoding="utf-8"?>
<svg version="1.1" xmlns:xlink="http://www.w3.org/1999/xlink" width="16px" height="16px" viewBox="592 1102  16 16" xmlns="http://www.w3.org/2000/svg">
  <path d="M 600 1102  C 604.48 1102  608 1105.52  608 1110  C 608 1114.48  604.48 1118  600 1118  C 595.52 1118  592 1114.48  592 1110  C 592 1105.52  595.52 1102  600 1102  Z " fill-rule="nonzero" fill="#ffffff" stroke="none" />
  <path d="M 600 1102.5  C 604.2 1102.5  607.5 1105.8  607.5 1110  C 607.5 1114.2  604.2 1117.5  600 1117.5  C 595.8 1117.5  592.5 1114.2  592.5 1110  C 592.5 1105.8  595.8 1102.5  600 1102.5  Z " stroke-width="1" stroke="#797979" fill="none" />
  <path d="M 600 1114  C 597.76 1114  596 1112.24  596 1110  C 596 1107.76  597.76 1106  600 1106  C 602.24 1106  604 1107.76  604 1110  C 604 1112.24  602.24 1114  600 1114  " fill-rule="nonzero" fill="#797979" stroke="none" />
</svg>