<?xml version="1.0" encoding="utf-8"?>
<svg version="1.1" xmlns:xlink="http://www.w3.org/1999/xlink" width="16px" height="16px" viewBox="525 1102  16 16" xmlns="http://www.w3.org/2000/svg">
  <path d="M 533 1102  C 537.48 1102  541 1105.52  541 1110  C 541 1114.48  537.48 1118  533 1118  C 528.52 1118  525 1114.48  525 1110  C 525 1105.52  528.52 1102  533 1102  Z " fill-rule="nonzero" fill="#f0f0f0" stroke="none" />
  <path d="M 533 1102.5  C 537.2 1102.5  540.5 1105.8  540.5 1110  C 540.5 1114.2  537.2 1117.5  533 1117.5  C 528.8 1117.5  525.5 1114.2  525.5 1110  C 525.5 1105.8  528.8 1102.5  533 1102.5  Z " stroke-width="1" stroke="#797979" fill="none" />
  <path d="M 533 1114  C 530.76 1114  529 1112.24  529 1110  C 529 1107.76  530.76 1106  533 1106  C 535.24 1106  537 1107.76  537 1110  C 537 1112.24  535.24 1114  533 1114  " fill-rule="nonzero" fill="#797979" stroke="none" />
</svg>